# Blender 4.4.1
# www.blender.org
mtllib enemy.mtl
o 球
v -0.346647 0.525930 0.015679
v -0.521741 0.350837 0.015679
v -0.616500 0.122066 0.015679
v -0.628695 -0.001743 0.015679
v -0.616500 -0.125553 0.015679
v -0.521741 -0.354323 0.015679
v -0.115498 0.620690 -0.008475
v -0.232262 0.584576 -0.031701
v -0.339873 0.525930 -0.053106
v -0.434194 0.447006 -0.071868
v -0.511601 0.350837 -0.087265
v -0.569120 0.241118 -0.098706
v -0.604540 0.122066 -0.105752
v -0.616500 -0.001743 -0.108131
v -0.604540 -0.125553 -0.105752
v -0.569120 -0.244605 -0.098706
v -0.511601 -0.354323 -0.087265
v -0.434194 -0.450492 -0.071868
v -0.339873 -0.529417 -0.053106
v -0.232262 -0.588062 -0.031701
v -0.115498 -0.624176 -0.008475
v -0.108452 0.620690 -0.031701
v -0.218442 0.584576 -0.077260
v -0.319809 0.525930 -0.119248
v -0.408657 0.447006 -0.156050
v -0.481574 0.350837 -0.186253
v -0.535756 0.241118 -0.208696
v -0.569120 0.122066 -0.222516
v -0.580386 -0.001743 -0.227183
v -0.569120 -0.125553 -0.222516
v -0.535756 -0.244605 -0.208696
v -0.481574 -0.354323 -0.186253
v -0.408657 -0.450492 -0.156050
v -0.319809 -0.529417 -0.119248
v -0.218442 -0.588062 -0.077260
v -0.108452 -0.624176 -0.031701
v -0.097011 0.620690 -0.053106
v -0.195999 0.584576 -0.119248
v -0.287227 0.525930 -0.180204
v -0.367189 0.447006 -0.233633
v -0.432811 0.350837 -0.277481
v -0.481574 0.241118 -0.310063
v -0.511601 0.122066 -0.330126
v -0.521740 -0.001743 -0.336901
v -0.511601 -0.125553 -0.330126
v -0.481574 -0.244605 -0.310063
v -0.432811 -0.354323 -0.277481
v -0.367189 -0.450492 -0.233633
v -0.287227 -0.529417 -0.180204
v -0.195999 -0.588062 -0.119248
v -0.097011 -0.624176 -0.053106
v -0.081614 0.620690 -0.071868
v -0.165796 0.584576 -0.156050
v -0.243379 0.525930 -0.233633
v -0.311381 0.447006 -0.301635
v -0.367189 0.350837 -0.357442
v -0.408658 0.241118 -0.398911
v -0.434194 0.122066 -0.424448
v -0.442816 -0.001743 -0.433070
v -0.434194 -0.125553 -0.424448
v -0.408658 -0.244605 -0.398911
v -0.367189 -0.354323 -0.357442
v -0.311381 -0.450492 -0.301635
v -0.243379 -0.529417 -0.233633
v -0.165796 -0.588062 -0.156050
v -0.081614 -0.624176 -0.071868
v -0.062852 0.620690 -0.087265
v -0.128994 0.584576 -0.186253
v -0.189950 0.525930 -0.277481
v -0.243379 0.447006 -0.357443
v -0.287227 0.350837 -0.423065
v -0.319809 0.241118 -0.471828
v -0.339873 0.122066 -0.501855
v -0.346647 -0.001743 -0.511994
v -0.339873 -0.125553 -0.501855
v -0.319809 -0.244605 -0.471828
v -0.287227 -0.354323 -0.423065
v -0.243379 -0.450492 -0.357443
v -0.189950 -0.529417 -0.277481
v -0.128994 -0.588062 -0.186253
v -0.062852 -0.624176 -0.087265
v 0.005933 0.632884 0.015679
v -0.041447 0.620690 -0.098706
v -0.087006 0.584576 -0.208696
v -0.128994 0.525930 -0.310063
v -0.165796 0.447006 -0.398911
v -0.195999 0.350837 -0.471828
v -0.218442 0.241118 -0.526009
v -0.232262 0.122066 -0.559374
v -0.236929 -0.001743 -0.570640
v -0.232262 -0.125553 -0.559374
v -0.218442 -0.244605 -0.526009
v -0.195999 -0.354323 -0.471828
v -0.165796 -0.450492 -0.398911
v -0.128994 -0.529417 -0.310063
v -0.087006 -0.588062 -0.208696
v -0.041447 -0.624176 -0.098706
v -0.018221 0.620690 -0.105752
v -0.041447 0.584576 -0.222516
v -0.062852 0.525930 -0.330126
v -0.081614 0.447006 -0.424448
v -0.097011 0.350837 -0.501855
v -0.108453 0.241118 -0.559374
v -0.115498 0.122066 -0.594794
v -0.117877 -0.001743 -0.606754
v -0.115498 -0.125553 -0.594794
v -0.108453 -0.244605 -0.559374
v -0.097011 -0.354323 -0.501855
v -0.081614 -0.450492 -0.424448
v -0.062852 -0.529417 -0.330126
v -0.041447 -0.588062 -0.222516
v -0.018221 -0.624176 -0.105752
v 0.005933 0.620690 -0.108131
v 0.005933 0.584576 -0.227183
v 0.005933 0.525930 -0.336901
v 0.005933 0.447006 -0.433070
v 0.005933 0.350837 -0.511994
v 0.005933 0.241118 -0.570640
v 0.005933 0.122066 -0.606754
v 0.005933 -0.001743 -0.618948
v 0.005933 -0.125553 -0.606754
v 0.005933 -0.244605 -0.570640
v 0.005933 -0.354323 -0.511994
v 0.005933 -0.450492 -0.433070
v 0.005933 -0.529417 -0.336901
v 0.005933 -0.588062 -0.227183
v 0.005933 -0.624176 -0.108131
v 0.030087 0.620690 -0.105752
v 0.053313 0.584576 -0.222516
v 0.074718 0.525930 -0.330126
v 0.093479 0.447006 -0.424448
v 0.108877 0.350837 -0.501855
v 0.120318 0.241118 -0.559374
v 0.127363 0.122066 -0.594794
v 0.129742 -0.001743 -0.606754
v 0.127363 -0.125553 -0.594794
v 0.120318 -0.244605 -0.559374
v 0.108877 -0.354323 -0.501855
v 0.093479 -0.450492 -0.424448
v 0.074718 -0.529417 -0.330126
v 0.053313 -0.588062 -0.222516
v 0.030087 -0.624176 -0.105752
v 0.053313 0.620690 -0.098706
v 0.098872 0.584576 -0.208696
v 0.140859 0.525930 -0.310063
v 0.177662 0.447006 -0.398911
v 0.207864 0.350837 -0.471828
v 0.230307 0.241118 -0.526009
v 0.244127 0.122066 -0.559374
v 0.248794 -0.001743 -0.570640
v 0.244127 -0.125553 -0.559374
v 0.230307 -0.244605 -0.526009
v 0.207864 -0.354323 -0.471828
v 0.177662 -0.450492 -0.398911
v 0.140859 -0.529417 -0.310063
v 0.098872 -0.588062 -0.208696
v 0.053313 -0.624176 -0.098706
v 0.074718 0.620690 -0.087265
v 0.140859 0.584576 -0.186253
v 0.201816 0.525930 -0.277481
v 0.255244 0.447006 -0.357443
v 0.299092 0.350837 -0.423065
v 0.331674 0.241118 -0.471828
v 0.351738 0.122066 -0.501855
v 0.358513 -0.001743 -0.511994
v 0.351738 -0.125553 -0.501855
v 0.331674 -0.244605 -0.471828
v 0.299092 -0.354323 -0.423065
v 0.255244 -0.450492 -0.357443
v 0.201816 -0.529417 -0.277481
v 0.140859 -0.588062 -0.186253
v 0.074718 -0.624176 -0.087265
v 0.093479 0.620690 -0.071868
v 0.177662 0.584576 -0.156050
v 0.255244 0.525930 -0.233633
v 0.323246 0.447006 -0.301635
v 0.379054 0.350837 -0.357442
v 0.420523 0.241118 -0.398911
v 0.446059 0.122066 -0.424448
v 0.454682 -0.001743 -0.433070
v 0.446059 -0.125553 -0.424448
v 0.420523 -0.244605 -0.398911
v 0.379054 -0.354323 -0.357442
v 0.323246 -0.450492 -0.301635
v 0.255244 -0.529417 -0.233633
v 0.177662 -0.588062 -0.156050
v 0.093479 -0.624176 -0.071868
v 0.108877 0.620690 -0.053106
v 0.207864 0.584576 -0.119248
v 0.299092 0.525930 -0.180204
v 0.379054 0.447006 -0.233633
v 0.444677 0.350837 -0.277481
v 0.493439 0.241118 -0.310063
v 0.523467 0.122066 -0.330126
v 0.533606 -0.001743 -0.336901
v 0.523467 -0.125553 -0.330126
v 0.493439 -0.244605 -0.310063
v 0.444677 -0.354323 -0.277481
v 0.379054 -0.450492 -0.233633
v 0.299092 -0.529417 -0.180204
v 0.207864 -0.588062 -0.119248
v 0.108877 -0.624176 -0.053106
v 0.120318 0.620690 -0.031701
v 0.230307 0.584576 -0.077260
v 0.331674 0.525930 -0.119248
v 0.420523 0.447006 -0.156050
v 0.493439 0.350837 -0.186253
v 0.547621 0.241118 -0.208696
v 0.580986 0.122066 -0.222516
v 0.592252 -0.001743 -0.227182
v 0.580986 -0.125553 -0.222516
v 0.547621 -0.244605 -0.208696
v 0.493439 -0.354323 -0.186253
v 0.420523 -0.450492 -0.156050
v 0.331674 -0.529417 -0.119248
v 0.230307 -0.588062 -0.077260
v 0.120318 -0.624176 -0.031701
v 0.127363 0.620690 -0.008475
v 0.244127 0.584576 -0.031701
v 0.351738 0.525930 -0.053106
v 0.446059 0.447006 -0.071868
v 0.523467 0.350837 -0.087265
v 0.580986 0.241118 -0.098706
v 0.616406 0.122066 -0.105752
v 0.628365 -0.001743 -0.108131
v 0.616406 -0.125553 -0.105752
v 0.580986 -0.244605 -0.098706
v 0.523467 -0.354323 -0.087265
v 0.446059 -0.450492 -0.071868
v 0.351738 -0.529417 -0.053106
v 0.244127 -0.588062 -0.031701
v 0.127363 -0.624176 -0.008475
v 0.129742 0.620690 0.015679
v 0.248794 0.584576 0.015679
v 0.358512 0.525930 0.015679
v 0.454682 0.447006 0.015679
v 0.533606 0.350837 0.015679
v 0.592252 0.241118 0.015679
v 0.628366 0.122066 0.015679
v 0.640559 -0.001743 0.015679
v 0.628366 -0.125553 0.015679
v 0.592252 -0.244605 0.015679
v 0.533606 -0.354323 0.015679
v 0.454682 -0.450492 0.015679
v 0.358512 -0.529417 0.015679
v 0.248794 -0.588062 0.015679
v 0.129742 -0.624176 0.015679
v 0.127363 0.620690 0.039833
v 0.244127 0.584576 0.063059
v 0.351738 0.525930 0.084464
v 0.446059 0.447006 0.103225
v 0.523467 0.350837 0.118623
v 0.580986 0.241118 0.130064
v 0.616406 0.122066 0.137109
v 0.628365 -0.001743 0.139488
v 0.616406 -0.125553 0.137109
v 0.580986 -0.244605 0.130064
v 0.523467 -0.354323 0.118623
v 0.446059 -0.450492 0.103225
v 0.351738 -0.529417 0.084464
v 0.244127 -0.588062 0.063059
v 0.127363 -0.624176 0.039833
v 0.120318 0.620690 0.063059
v 0.230307 0.584576 0.108618
v 0.331674 0.525930 0.150605
v 0.420523 0.447006 0.187408
v 0.493439 0.350837 0.217611
v 0.547621 0.241118 0.240053
v 0.580986 0.122066 0.253874
v 0.592251 -0.001743 0.258540
v 0.580986 -0.125553 0.253874
v 0.547621 -0.244605 0.240053
v 0.493439 -0.354323 0.217611
v 0.420523 -0.450492 0.187408
v 0.331674 -0.529417 0.150605
v 0.230307 -0.588062 0.108618
v 0.120318 -0.624176 0.063059
v 0.108877 0.620690 0.084464
v 0.207864 0.584576 0.150605
v 0.299092 0.525930 0.211562
v 0.379054 0.447006 0.264990
v 0.444677 0.350837 0.308838
v 0.493439 0.241118 0.341420
v 0.523467 0.122066 0.361484
v 0.533605 -0.001743 0.368259
v 0.523467 -0.125553 0.361484
v 0.493439 -0.244605 0.341420
v 0.444677 -0.354323 0.308838
v 0.379054 -0.450492 0.264990
v 0.299092 -0.529417 0.211562
v 0.207864 -0.588062 0.150605
v 0.108877 -0.624176 0.084464
v 0.093479 0.620690 0.103225
v 0.177662 0.584576 0.187408
v 0.255244 0.525930 0.264990
v 0.323246 0.447006 0.332992
v 0.379054 0.350837 0.388800
v 0.420523 0.241118 0.430269
v 0.446059 0.122066 0.455805
v 0.454681 -0.001743 0.464428
v 0.446059 -0.125553 0.455805
v 0.420523 -0.244605 0.430269
v 0.379054 -0.354323 0.388800
v 0.323246 -0.450492 0.332992
v 0.255244 -0.529417 0.264990
v 0.177662 -0.588062 0.187408
v 0.093479 -0.624176 0.103225
v 0.005933 -0.636370 0.015679
v 0.074718 0.620690 0.118623
v 0.140859 0.584576 0.217611
v 0.201815 0.525930 0.308838
v 0.255244 0.447006 0.388800
v 0.299092 0.350837 0.454423
v 0.331674 0.241118 0.503185
v 0.351738 0.122066 0.533213
v 0.358512 -0.001743 0.543352
v 0.351738 -0.125553 0.533213
v 0.331674 -0.244605 0.503185
v 0.299092 -0.354323 0.454423
v 0.255244 -0.450492 0.388800
v 0.201815 -0.529417 0.308838
v 0.140859 -0.588062 0.217611
v 0.074718 -0.624176 0.118623
v 0.053313 0.620690 0.130064
v 0.098872 0.584576 0.240053
v 0.140859 0.525930 0.341420
v 0.177662 0.447006 0.430269
v 0.207864 0.350837 0.503185
v 0.230307 0.241118 0.557367
v 0.244127 0.122066 0.590732
v 0.248794 -0.001743 0.601997
v 0.244127 -0.125553 0.590732
v 0.230307 -0.244605 0.557367
v 0.207864 -0.354323 0.503185
v 0.177662 -0.450492 0.430269
v 0.140859 -0.529417 0.341420
v 0.098872 -0.588062 0.240053
v 0.053313 -0.624176 0.130064
v 0.030087 0.620690 0.137109
v 0.053313 0.584576 0.253873
v 0.074718 0.525930 0.361484
v 0.093479 0.447006 0.455805
v 0.108877 0.350837 0.533213
v 0.120318 0.241118 0.590732
v 0.127363 0.122066 0.626152
v 0.129742 -0.001743 0.638111
v 0.127363 -0.125553 0.626152
v 0.120318 -0.244605 0.590732
v 0.108877 -0.354323 0.533213
v 0.093479 -0.450492 0.455805
v 0.074718 -0.529417 0.361484
v 0.053313 -0.588062 0.253873
v 0.030087 -0.624176 0.137109
v 0.005933 0.620690 0.139488
v 0.005933 0.584576 0.258540
v 0.005933 0.525930 0.368258
v 0.005933 0.447006 0.464428
v 0.005933 0.350837 0.543352
v 0.005933 0.241118 0.601998
v 0.005933 0.122066 0.638112
v 0.005932 -0.001743 0.650305
v 0.005933 -0.125553 0.638112
v 0.005933 -0.244605 0.601998
v 0.005933 -0.354323 0.543352
v 0.005933 -0.450492 0.464428
v 0.005933 -0.529417 0.368258
v 0.005933 -0.588062 0.258540
v 0.005933 -0.624176 0.139488
v -0.018221 0.620690 0.137109
v -0.041447 0.584576 0.253873
v -0.062852 0.525930 0.361484
v -0.081614 0.447006 0.455805
v -0.097011 0.350837 0.533213
v -0.108452 0.241118 0.590732
v -0.115498 0.122066 0.626152
v -0.117877 -0.001743 0.638111
v -0.115498 -0.125553 0.626152
v -0.108452 -0.244605 0.590732
v -0.097011 -0.354323 0.533213
v -0.081614 -0.450492 0.455805
v -0.062852 -0.529417 0.361484
v -0.041447 -0.588062 0.253873
v -0.018221 -0.624176 0.137109
v -0.041447 0.620690 0.130064
v -0.087006 0.584576 0.240053
v -0.128994 0.525930 0.341420
v -0.165796 0.447006 0.430269
v -0.195999 0.350837 0.503185
v -0.218442 0.241118 0.557367
v -0.232262 0.122066 0.590732
v -0.236929 -0.001743 0.601997
v -0.232262 -0.125553 0.590732
v -0.218442 -0.244605 0.557367
v -0.195999 -0.354323 0.503185
v -0.165796 -0.450492 0.430269
v -0.128994 -0.529417 0.341420
v -0.087006 -0.588062 0.240053
v -0.041447 -0.624176 0.130064
v -0.062852 0.620690 0.118623
v -0.128994 0.584576 0.217610
v -0.189950 0.525930 0.308838
v -0.243379 0.447006 0.388800
v -0.287227 0.350837 0.454423
v -0.319809 0.241118 0.503185
v -0.339873 0.122066 0.533213
v -0.346647 -0.001743 0.543351
v -0.339873 -0.125553 0.533213
v -0.319809 -0.244605 0.503185
v -0.287227 -0.354323 0.454423
v -0.243379 -0.450492 0.388800
v -0.189950 -0.529417 0.308838
v -0.128994 -0.588062 0.217610
v -0.062852 -0.624176 0.118623
v -0.081614 0.620690 0.103225
v -0.165796 0.584576 0.187408
v -0.243379 0.525930 0.264990
v -0.311381 0.447006 0.332992
v -0.367188 0.350837 0.388800
v -0.408657 0.241118 0.430269
v -0.434194 0.122066 0.455805
v -0.442816 -0.001743 0.464427
v -0.434194 -0.125553 0.455805
v -0.408657 -0.244605 0.430269
v -0.367188 -0.354323 0.388800
v -0.311381 -0.450492 0.332992
v -0.243379 -0.529417 0.264990
v -0.165796 -0.588062 0.187408
v -0.081614 -0.624176 0.103225
v -0.097011 0.620690 0.084464
v -0.195999 0.584576 0.150605
v -0.287227 0.525930 0.211561
v -0.367189 0.447006 0.264990
v -0.432811 0.350837 0.308838
v -0.481574 0.241118 0.341420
v -0.511601 0.122066 0.361484
v -0.521740 -0.001743 0.368258
v -0.511601 -0.125553 0.361484
v -0.481574 -0.244605 0.341420
v -0.432811 -0.354323 0.308838
v -0.367189 -0.450492 0.264990
v -0.287227 -0.529417 0.211561
v -0.195999 -0.588062 0.150605
v -0.097011 -0.624176 0.084464
v -0.108452 0.620690 0.063059
v -0.218442 0.584576 0.108618
v -0.319808 0.525930 0.150605
v -0.408657 0.447006 0.187408
v -0.481574 0.350837 0.217610
v -0.535755 0.241118 0.240053
v -0.569120 0.122066 0.253873
v -0.580386 -0.001743 0.258540
v -0.569120 -0.125553 0.253873
v -0.535755 -0.244605 0.240053
v -0.481574 -0.354323 0.217610
v -0.408657 -0.450492 0.187408
v -0.319808 -0.529417 0.150605
v -0.218442 -0.588062 0.108618
v -0.108452 -0.624176 0.063059
v -0.115498 0.620690 0.039833
v -0.232262 0.584576 0.063059
v -0.339872 0.525930 0.084464
v -0.434194 0.447006 0.103225
v -0.511601 0.350837 0.118623
v -0.569120 0.241118 0.130064
v -0.604540 0.122066 0.137109
v -0.616500 -0.001743 0.139488
v -0.604540 -0.125553 0.137109
v -0.569120 -0.244605 0.130064
v -0.511601 -0.354323 0.118623
v -0.434194 -0.450492 0.103225
v -0.339872 -0.529417 0.084464
v -0.232262 -0.588062 0.063059
v -0.115498 -0.624176 0.039833
v -0.117877 0.620690 0.015679
v -0.236928 0.584576 0.015679
v -0.442816 0.447006 0.015679
v -0.580386 0.241118 0.015679
v -0.580386 -0.244605 0.015679
v -0.442816 -0.450492 0.015679
v -0.346647 -0.529417 0.015679
v -0.236928 -0.588062 0.015679
v -0.117877 -0.624176 0.015679
vn -0.5598 0.8286 -0.0000
vn -0.8333 0.5528 -0.0000
vn -0.9810 0.1939 -0.0000
vn -1.0000 -0.0000 -0.0000
vn -0.9810 -0.1939 -0.0000
vn -0.8333 -0.5528 -0.0000
vn -0.1971 0.9796 -0.0392
vn -0.3804 0.9217 -0.0757
vn -0.5490 0.8286 -0.1092
vn -0.6965 0.7041 -0.1385
vn -0.8173 0.5528 -0.1626
vn -0.9070 0.3805 -0.1804
vn -0.9622 0.1939 -0.1914
vn -0.9808 -0.0000 -0.1951
vn -0.9622 -0.1939 -0.1914
vn -0.9070 -0.3805 -0.1804
vn -0.8173 -0.5528 -0.1626
vn -0.6965 -0.7041 -0.1385
vn -0.5490 -0.8286 -0.1092
vn -0.3804 -0.9217 -0.0757
vn -0.1971 -0.9796 -0.0392
vn -0.1857 0.9796 -0.0769
vn -0.3584 0.9217 -0.1484
vn -0.5172 0.8286 -0.2142
vn -0.6561 0.7041 -0.2718
vn -0.7699 0.5528 -0.3189
vn -0.8544 0.3805 -0.3539
vn -0.9063 0.1939 -0.3754
vn -0.9239 -0.0000 -0.3827
vn -0.9063 -0.1939 -0.3754
vn -0.8544 -0.3805 -0.3539
vn -0.7699 -0.5528 -0.3189
vn -0.6561 -0.7041 -0.2718
vn -0.5172 -0.8286 -0.2142
vn -0.3584 -0.9217 -0.1484
vn -0.1857 -0.9796 -0.0769
vn -0.1671 0.9796 -0.1117
vn -0.3225 0.9217 -0.2155
vn -0.4654 0.8286 -0.3110
vn -0.5905 0.7041 -0.3945
vn -0.6929 0.5528 -0.4630
vn -0.7689 0.3805 -0.5138
vn -0.8157 0.1939 -0.5450
vn -0.8315 -0.0000 -0.5556
vn -0.8157 -0.1939 -0.5450
vn -0.7689 -0.3805 -0.5138
vn -0.6929 -0.5528 -0.4630
vn -0.5905 -0.7041 -0.3945
vn -0.4654 -0.8286 -0.3110
vn -0.3225 -0.9217 -0.2155
vn -0.1671 -0.9796 -0.1117
vn -0.1421 0.9796 -0.1421
vn -0.2743 0.9217 -0.2743
vn -0.3958 0.8286 -0.3958
vn -0.5021 0.7041 -0.5021
vn -0.5893 0.5528 -0.5893
vn -0.6539 0.3805 -0.6539
vn -0.6937 0.1939 -0.6937
vn -0.7071 -0.0000 -0.7071
vn -0.6937 -0.1939 -0.6937
vn -0.6539 -0.3805 -0.6539
vn -0.5893 -0.5528 -0.5893
vn -0.5021 -0.7041 -0.5021
vn -0.3958 -0.8286 -0.3958
vn -0.2743 -0.9217 -0.2743
vn -0.1421 -0.9796 -0.1421
vn -0.1117 0.9796 -0.1671
vn -0.2155 0.9217 -0.3225
vn -0.3110 0.8286 -0.4654
vn -0.3945 0.7041 -0.5905
vn -0.4630 0.5528 -0.6929
vn -0.5138 0.3805 -0.7689
vn -0.5450 0.1939 -0.8157
vn -0.5556 -0.0000 -0.8315
vn -0.5450 -0.1939 -0.8157
vn -0.5138 -0.3805 -0.7689
vn -0.4630 -0.5528 -0.6929
vn -0.3945 -0.7041 -0.5905
vn -0.3110 -0.8286 -0.4654
vn -0.2155 -0.9217 -0.3225
vn -0.1117 -0.9796 -0.1671
vn -0.0000 1.0000 -0.0000
vn -0.0769 0.9796 -0.1857
vn -0.1484 0.9217 -0.3584
vn -0.2142 0.8286 -0.5172
vn -0.2718 0.7041 -0.6561
vn -0.3189 0.5528 -0.7699
vn -0.3539 0.3805 -0.8544
vn -0.3754 0.1939 -0.9063
vn -0.3827 -0.0000 -0.9239
vn -0.3754 -0.1939 -0.9063
vn -0.3539 -0.3805 -0.8544
vn -0.3189 -0.5528 -0.7699
vn -0.2718 -0.7041 -0.6561
vn -0.2142 -0.8286 -0.5172
vn -0.1484 -0.9217 -0.3584
vn -0.0769 -0.9796 -0.1857
vn -0.0392 0.9796 -0.1971
vn -0.0757 0.9217 -0.3804
vn -0.1092 0.8286 -0.5490
vn -0.1385 0.7041 -0.6965
vn -0.1626 0.5528 -0.8173
vn -0.1804 0.3805 -0.9070
vn -0.1914 0.1939 -0.9622
vn -0.1951 -0.0000 -0.9808
vn -0.1914 -0.1939 -0.9622
vn -0.1804 -0.3805 -0.9070
vn -0.1626 -0.5528 -0.8173
vn -0.1385 -0.7041 -0.6965
vn -0.1092 -0.8286 -0.5490
vn -0.0757 -0.9217 -0.3804
vn -0.0392 -0.9796 -0.1971
vn -0.0000 0.9796 -0.2010
vn -0.0000 0.9217 -0.3879
vn -0.0000 0.8286 -0.5598
vn -0.0000 0.7041 -0.7101
vn -0.0000 0.5528 -0.8333
vn -0.0000 0.3805 -0.9248
vn -0.0000 0.1939 -0.9810
vn -0.0000 -0.0000 -1.0000
vn -0.0000 -0.1939 -0.9810
vn -0.0000 -0.3805 -0.9248
vn -0.0000 -0.5528 -0.8333
vn -0.0000 -0.7041 -0.7101
vn -0.0000 -0.8286 -0.5598
vn -0.0000 -0.9217 -0.3879
vn -0.0000 -0.9796 -0.2010
vn 0.0392 0.9796 -0.1971
vn 0.0757 0.9217 -0.3804
vn 0.1092 0.8286 -0.5490
vn 0.1385 0.7041 -0.6965
vn 0.1626 0.5528 -0.8173
vn 0.1804 0.3805 -0.9070
vn 0.1914 0.1939 -0.9622
vn 0.1951 -0.0000 -0.9808
vn 0.1914 -0.1939 -0.9622
vn 0.1804 -0.3805 -0.9070
vn 0.1626 -0.5528 -0.8173
vn 0.1385 -0.7041 -0.6965
vn 0.1092 -0.8286 -0.5490
vn 0.0757 -0.9217 -0.3804
vn 0.0392 -0.9796 -0.1971
vn 0.0769 0.9796 -0.1857
vn 0.1484 0.9217 -0.3584
vn 0.2142 0.8286 -0.5172
vn 0.2718 0.7041 -0.6561
vn 0.3189 0.5528 -0.7699
vn 0.3539 0.3805 -0.8544
vn 0.3754 0.1939 -0.9063
vn 0.3827 -0.0000 -0.9239
vn 0.3754 -0.1939 -0.9063
vn 0.3539 -0.3805 -0.8544
vn 0.3189 -0.5528 -0.7699
vn 0.2718 -0.7041 -0.6561
vn 0.2142 -0.8286 -0.5172
vn 0.1484 -0.9217 -0.3584
vn 0.0769 -0.9796 -0.1857
vn 0.1117 0.9796 -0.1671
vn 0.2155 0.9217 -0.3225
vn 0.3110 0.8286 -0.4654
vn 0.3945 0.7041 -0.5905
vn 0.4630 0.5528 -0.6929
vn 0.5138 0.3805 -0.7689
vn 0.5450 0.1939 -0.8157
vn 0.5556 -0.0000 -0.8315
vn 0.5450 -0.1939 -0.8157
vn 0.5138 -0.3805 -0.7689
vn 0.4630 -0.5528 -0.6929
vn 0.3945 -0.7041 -0.5905
vn 0.3110 -0.8286 -0.4654
vn 0.2155 -0.9217 -0.3225
vn 0.1117 -0.9796 -0.1671
vn 0.1421 0.9796 -0.1421
vn 0.2743 0.9217 -0.2743
vn 0.3958 0.8286 -0.3958
vn 0.5021 0.7041 -0.5021
vn 0.5893 0.5528 -0.5893
vn 0.6539 0.3805 -0.6539
vn 0.6937 0.1939 -0.6937
vn 0.7071 -0.0000 -0.7071
vn 0.6937 -0.1939 -0.6937
vn 0.6539 -0.3805 -0.6539
vn 0.5893 -0.5528 -0.5893
vn 0.5021 -0.7041 -0.5021
vn 0.3958 -0.8286 -0.3958
vn 0.2743 -0.9217 -0.2743
vn 0.1421 -0.9796 -0.1421
vn 0.1671 0.9796 -0.1117
vn 0.3225 0.9217 -0.2155
vn 0.4654 0.8286 -0.3110
vn 0.5905 0.7041 -0.3945
vn 0.6929 0.5528 -0.4630
vn 0.7689 0.3805 -0.5138
vn 0.8157 0.1939 -0.5450
vn 0.8315 -0.0000 -0.5556
vn 0.8157 -0.1939 -0.5450
vn 0.7689 -0.3805 -0.5138
vn 0.6929 -0.5528 -0.4630
vn 0.5905 -0.7041 -0.3945
vn 0.4654 -0.8286 -0.3110
vn 0.3225 -0.9217 -0.2155
vn 0.1671 -0.9796 -0.1117
vn 0.1857 0.9796 -0.0769
vn 0.3584 0.9217 -0.1484
vn 0.5172 0.8286 -0.2142
vn 0.6561 0.7041 -0.2718
vn 0.7699 0.5528 -0.3189
vn 0.8544 0.3805 -0.3539
vn 0.9063 0.1939 -0.3754
vn 0.9239 -0.0000 -0.3827
vn 0.9063 -0.1939 -0.3754
vn 0.8544 -0.3805 -0.3539
vn 0.7699 -0.5528 -0.3189
vn 0.6561 -0.7041 -0.2718
vn 0.5172 -0.8286 -0.2142
vn 0.3584 -0.9217 -0.1484
vn 0.1857 -0.9796 -0.0769
vn 0.1971 0.9796 -0.0392
vn 0.3804 0.9217 -0.0757
vn 0.5490 0.8286 -0.1092
vn 0.6965 0.7041 -0.1385
vn 0.8173 0.5528 -0.1626
vn 0.9070 0.3805 -0.1804
vn 0.9622 0.1939 -0.1914
vn 0.9808 -0.0000 -0.1951
vn 0.9622 -0.1939 -0.1914
vn 0.9070 -0.3805 -0.1804
vn 0.8173 -0.5528 -0.1626
vn 0.6965 -0.7041 -0.1385
vn 0.5490 -0.8286 -0.1092
vn 0.3804 -0.9217 -0.0757
vn 0.1971 -0.9796 -0.0392
vn 0.2010 0.9796 -0.0000
vn 0.3879 0.9217 -0.0000
vn 0.5598 0.8286 -0.0000
vn 0.7101 0.7041 -0.0000
vn 0.8333 0.5528 -0.0000
vn 0.9248 0.3805 -0.0000
vn 0.9810 0.1939 -0.0000
vn 1.0000 -0.0000 -0.0000
vn 0.9810 -0.1939 -0.0000
vn 0.9248 -0.3805 -0.0000
vn 0.8333 -0.5528 -0.0000
vn 0.7101 -0.7041 -0.0000
vn 0.5598 -0.8286 -0.0000
vn 0.3879 -0.9217 -0.0000
vn 0.2010 -0.9796 -0.0000
vn 0.1971 0.9796 0.0392
vn 0.3804 0.9217 0.0757
vn 0.5490 0.8286 0.1092
vn 0.6965 0.7041 0.1385
vn 0.8173 0.5528 0.1626
vn 0.9070 0.3805 0.1804
vn 0.9622 0.1939 0.1914
vn 0.9808 -0.0000 0.1951
vn 0.9622 -0.1939 0.1914
vn 0.9070 -0.3805 0.1804
vn 0.8173 -0.5528 0.1626
vn 0.6965 -0.7041 0.1385
vn 0.5490 -0.8286 0.1092
vn 0.3804 -0.9217 0.0757
vn 0.1971 -0.9796 0.0392
vn 0.1857 0.9796 0.0769
vn 0.3584 0.9217 0.1484
vn 0.5172 0.8286 0.2142
vn 0.6561 0.7041 0.2718
vn 0.7699 0.5528 0.3189
vn 0.8544 0.3805 0.3539
vn 0.9063 0.1939 0.3754
vn 0.9239 -0.0000 0.3827
vn 0.9063 -0.1939 0.3754
vn 0.8544 -0.3805 0.3539
vn 0.7699 -0.5528 0.3189
vn 0.6561 -0.7041 0.2718
vn 0.5172 -0.8286 0.2142
vn 0.3584 -0.9217 0.1484
vn 0.1857 -0.9796 0.0769
vn 0.1671 0.9796 0.1117
vn 0.3225 0.9217 0.2155
vn 0.4654 0.8286 0.3110
vn 0.5905 0.7041 0.3945
vn 0.6929 0.5528 0.4630
vn 0.7689 0.3805 0.5138
vn 0.8157 0.1939 0.5450
vn 0.8315 -0.0000 0.5556
vn 0.8157 -0.1939 0.5450
vn 0.7689 -0.3805 0.5138
vn 0.6929 -0.5528 0.4630
vn 0.5905 -0.7041 0.3945
vn 0.4654 -0.8286 0.3110
vn 0.3225 -0.9217 0.2155
vn 0.1671 -0.9796 0.1117
vn 0.1421 0.9796 0.1421
vn 0.2743 0.9217 0.2743
vn 0.3958 0.8286 0.3958
vn 0.5021 0.7041 0.5021
vn 0.5893 0.5528 0.5893
vn 0.6539 0.3805 0.6539
vn 0.6937 0.1939 0.6937
vn 0.7071 -0.0000 0.7071
vn 0.6937 -0.1939 0.6937
vn 0.6539 -0.3805 0.6539
vn 0.5893 -0.5528 0.5893
vn 0.5021 -0.7041 0.5021
vn 0.3958 -0.8286 0.3958
vn 0.2743 -0.9217 0.2743
vn 0.1421 -0.9796 0.1421
vn -0.0000 -1.0000 -0.0000
vn 0.1117 0.9796 0.1671
vn 0.2155 0.9217 0.3225
vn 0.3110 0.8286 0.4654
vn 0.3945 0.7041 0.5905
vn 0.4630 0.5528 0.6929
vn 0.5138 0.3805 0.7689
vn 0.5450 0.1939 0.8157
vn 0.5556 -0.0000 0.8315
vn 0.5450 -0.1939 0.8157
vn 0.5138 -0.3805 0.7689
vn 0.4630 -0.5528 0.6929
vn 0.3945 -0.7041 0.5905
vn 0.3110 -0.8286 0.4654
vn 0.2155 -0.9217 0.3225
vn 0.1117 -0.9796 0.1671
vn 0.0769 0.9796 0.1857
vn 0.1484 0.9217 0.3584
vn 0.2142 0.8286 0.5172
vn 0.2718 0.7041 0.6561
vn 0.3189 0.5528 0.7699
vn 0.3539 0.3805 0.8544
vn 0.3754 0.1939 0.9063
vn 0.3827 -0.0000 0.9239
vn 0.3754 -0.1939 0.9063
vn 0.3539 -0.3805 0.8544
vn 0.3189 -0.5528 0.7699
vn 0.2718 -0.7041 0.6561
vn 0.2142 -0.8286 0.5172
vn 0.1484 -0.9217 0.3584
vn 0.0769 -0.9796 0.1857
vn 0.0392 0.9796 0.1971
vn 0.0757 0.9217 0.3804
vn 0.1092 0.8286 0.5490
vn 0.1385 0.7041 0.6965
vn 0.1626 0.5528 0.8173
vn 0.1804 0.3805 0.9070
vn 0.1914 0.1939 0.9622
vn 0.1951 -0.0000 0.9808
vn 0.1914 -0.1939 0.9622
vn 0.1804 -0.3805 0.9070
vn 0.1626 -0.5528 0.8173
vn 0.1385 -0.7041 0.6965
vn 0.1092 -0.8286 0.5490
vn 0.0757 -0.9217 0.3804
vn 0.0392 -0.9796 0.1971
vn -0.0000 0.9796 0.2010
vn -0.0000 0.9217 0.3879
vn -0.0000 0.8286 0.5598
vn -0.0000 0.7041 0.7101
vn -0.0000 0.5528 0.8333
vn -0.0000 0.3805 0.9248
vn -0.0000 0.1939 0.9810
vn -0.0000 -0.0000 1.0000
vn -0.0000 -0.1939 0.9810
vn -0.0000 -0.3805 0.9248
vn -0.0000 -0.5528 0.8333
vn -0.0000 -0.7041 0.7101
vn -0.0000 -0.8286 0.5598
vn -0.0000 -0.9217 0.3879
vn -0.0000 -0.9796 0.2010
vn -0.0392 0.9796 0.1971
vn -0.0757 0.9217 0.3804
vn -0.1092 0.8286 0.5490
vn -0.1385 0.7041 0.6965
vn -0.1626 0.5528 0.8173
vn -0.1804 0.3805 0.9070
vn -0.1914 0.1939 0.9622
vn -0.1951 -0.0000 0.9808
vn -0.1914 -0.1939 0.9622
vn -0.1804 -0.3805 0.9070
vn -0.1626 -0.5528 0.8173
vn -0.1385 -0.7041 0.6965
vn -0.1092 -0.8286 0.5490
vn -0.0757 -0.9217 0.3804
vn -0.0392 -0.9796 0.1971
vn -0.0769 0.9796 0.1857
vn -0.1484 0.9217 0.3584
vn -0.2142 0.8286 0.5172
vn -0.2718 0.7041 0.6561
vn -0.3189 0.5528 0.7699
vn -0.3539 0.3805 0.8544
vn -0.3754 0.1939 0.9063
vn -0.3827 -0.0000 0.9239
vn -0.3754 -0.1939 0.9063
vn -0.3539 -0.3805 0.8544
vn -0.3189 -0.5528 0.7699
vn -0.2718 -0.7041 0.6561
vn -0.2142 -0.8286 0.5172
vn -0.1484 -0.9217 0.3584
vn -0.0769 -0.9796 0.1857
vn -0.1117 0.9796 0.1671
vn -0.2155 0.9217 0.3225
vn -0.3110 0.8286 0.4654
vn -0.3945 0.7041 0.5905
vn -0.4630 0.5528 0.6929
vn -0.5138 0.3805 0.7689
vn -0.5450 0.1939 0.8157
vn -0.5556 -0.0000 0.8315
vn -0.5450 -0.1939 0.8157
vn -0.5138 -0.3805 0.7689
vn -0.4630 -0.5528 0.6929
vn -0.3945 -0.7041 0.5905
vn -0.3110 -0.8286 0.4654
vn -0.2155 -0.9217 0.3225
vn -0.1117 -0.9796 0.1671
vn -0.1421 0.9796 0.1421
vn -0.2743 0.9217 0.2743
vn -0.3958 0.8286 0.3958
vn -0.5021 0.7041 0.5021
vn -0.5893 0.5528 0.5893
vn -0.6539 0.3805 0.6539
vn -0.6937 0.1939 0.6937
vn -0.7071 -0.0000 0.7071
vn -0.6937 -0.1939 0.6937
vn -0.6539 -0.3805 0.6539
vn -0.5893 -0.5528 0.5893
vn -0.5021 -0.7041 0.5021
vn -0.3958 -0.8286 0.3958
vn -0.2743 -0.9217 0.2743
vn -0.1421 -0.9796 0.1421
vn -0.1671 0.9796 0.1117
vn -0.3225 0.9217 0.2155
vn -0.4654 0.8286 0.3110
vn -0.5905 0.7041 0.3945
vn -0.6929 0.5528 0.4630
vn -0.7689 0.3805 0.5138
vn -0.8157 0.1939 0.5450
vn -0.8315 -0.0000 0.5556
vn -0.8157 -0.1939 0.5450
vn -0.7689 -0.3805 0.5138
vn -0.6929 -0.5528 0.4630
vn -0.5905 -0.7041 0.3945
vn -0.4654 -0.8286 0.3110
vn -0.3225 -0.9217 0.2155
vn -0.1671 -0.9796 0.1117
vn -0.1857 0.9796 0.0769
vn -0.3584 0.9217 0.1484
vn -0.5172 0.8286 0.2142
vn -0.6561 0.7041 0.2718
vn -0.7699 0.5528 0.3189
vn -0.8544 0.3805 0.3539
vn -0.9063 0.1939 0.3754
vn -0.9239 -0.0000 0.3827
vn -0.9063 -0.1939 0.3754
vn -0.8544 -0.3805 0.3539
vn -0.7699 -0.5528 0.3189
vn -0.6561 -0.7041 0.2718
vn -0.5172 -0.8286 0.2142
vn -0.3584 -0.9217 0.1484
vn -0.1857 -0.9796 0.0769
vn -0.1971 0.9796 0.0392
vn -0.3804 0.9217 0.0757
vn -0.5490 0.8286 0.1092
vn -0.6965 0.7041 0.1385
vn -0.8173 0.5528 0.1626
vn -0.9070 0.3805 0.1804
vn -0.9622 0.1939 0.1914
vn -0.9808 -0.0000 0.1951
vn -0.9622 -0.1939 0.1914
vn -0.9070 -0.3805 0.1804
vn -0.8173 -0.5528 0.1626
vn -0.6965 -0.7041 0.1385
vn -0.5490 -0.8286 0.1092
vn -0.3804 -0.9217 0.0757
vn -0.1971 -0.9796 0.0392
vn -0.2010 0.9796 -0.0000
vn -0.3879 0.9217 -0.0000
vn -0.7101 0.7041 -0.0000
vn -0.9248 0.3805 -0.0000
vn -0.9248 -0.3805 -0.0000
vn -0.7101 -0.7041 -0.0000
vn -0.5598 -0.8286 -0.0000
vn -0.3879 -0.9217 -0.0000
vn -0.2010 -0.9796 -0.0000
vt 0.866341 0.591389
vt 0.851066 0.560839
vt 0.866341 0.560839
vt 0.866341 0.774691
vt 0.851066 0.805241
vt 0.851066 0.774691
vt 0.851066 0.530289
vt 0.866341 0.530289
vt 0.851066 0.744141
vt 0.866341 0.744141
vt 0.866341 0.957992
vt 0.858704 0.988542
vt 0.851066 0.957992
vt 0.858704 0.499739
vt 0.851066 0.713590
vt 0.866341 0.713590
vt 0.866341 0.927442
vt 0.851066 0.927442
vt 0.851066 0.683040
vt 0.866341 0.683040
vt 0.866341 0.896892
vt 0.851066 0.896892
vt 0.851066 0.652490
vt 0.866341 0.652490
vt 0.866341 0.866342
vt 0.851066 0.866342
vt 0.851066 0.621940
vt 0.866341 0.621940
vt 0.866341 0.835791
vt 0.851066 0.835791
vt 0.851066 0.591390
vt 0.866341 0.805241
vt 0.835791 0.835791
vt 0.835791 0.621940
vt 0.835791 0.591390
vt 0.835791 0.805241
vt 0.835791 0.560839
vt 0.835791 0.774691
vt 0.835791 0.530289
vt 0.835791 0.744141
vt 0.843429 0.988542
vt 0.835791 0.957992
vt 0.843429 0.499739
vt 0.835791 0.713590
vt 0.835791 0.927442
vt 0.835791 0.683040
vt 0.835791 0.896892
vt 0.835791 0.652490
vt 0.835791 0.866342
vt 0.820516 0.744141
vt 0.820516 0.713590
vt 0.820516 0.927442
vt 0.820516 0.683040
vt 0.820516 0.896892
vt 0.820516 0.652490
vt 0.820516 0.866342
vt 0.820516 0.621940
vt 0.820516 0.835791
vt 0.820516 0.591390
vt 0.820516 0.805241
vt 0.820516 0.560839
vt 0.820516 0.774691
vt 0.820516 0.530289
vt 0.828154 0.988542
vt 0.820516 0.957992
vt 0.828154 0.499739
vt 0.805241 0.591390
vt 0.805241 0.805241
vt 0.805241 0.560839
vt 0.805241 0.774691
vt 0.805241 0.530289
vt 0.805241 0.744141
vt 0.812879 0.988542
vt 0.805241 0.957992
vt 0.812879 0.499739
vt 0.805241 0.713590
vt 0.805241 0.927442
vt 0.805241 0.683040
vt 0.805241 0.896892
vt 0.805241 0.652490
vt 0.805241 0.866341
vt 0.805241 0.621940
vt 0.805241 0.835791
vt 0.789966 0.683040
vt 0.789966 0.896892
vt 0.789966 0.652490
vt 0.789966 0.866342
vt 0.789966 0.621940
vt 0.789966 0.835791
vt 0.789966 0.591390
vt 0.789966 0.805241
vt 0.789966 0.560839
vt 0.789966 0.774691
vt 0.789966 0.530289
vt 0.789966 0.744141
vt 0.797603 0.988542
vt 0.789966 0.957992
vt 0.797603 0.499739
vt 0.789966 0.713590
vt 0.789966 0.927442
vt 0.774691 0.560839
vt 0.774691 0.805241
vt 0.774691 0.774691
vt 0.774691 0.530289
vt 0.774691 0.744141
vt 0.782328 0.988542
vt 0.774691 0.957992
vt 0.782328 0.499739
vt 0.774691 0.713590
vt 0.774691 0.927442
vt 0.774691 0.683040
vt 0.774691 0.896892
vt 0.774691 0.652490
vt 0.774691 0.866342
vt 0.774691 0.621940
vt 0.774691 0.835791
vt 0.774691 0.591390
vt 0.759416 0.896892
vt 0.759416 0.683040
vt 0.759416 0.652490
vt 0.759416 0.866342
vt 0.759416 0.621940
vt 0.759416 0.835791
vt 0.759416 0.591390
vt 0.759416 0.805241
vt 0.759416 0.560839
vt 0.759416 0.774691
vt 0.759416 0.530289
vt 0.759416 0.744141
vt 0.767053 0.988542
vt 0.759416 0.957992
vt 0.767053 0.499739
vt 0.759416 0.713590
vt 0.759416 0.927442
vt 0.744141 0.805241
vt 0.744141 0.774691
vt 0.744141 0.530289
vt 0.744141 0.744141
vt 0.751778 0.988542
vt 0.744141 0.957992
vt 0.751778 0.499739
vt 0.744141 0.713590
vt 0.744141 0.927442
vt 0.744141 0.683040
vt 0.744141 0.896892
vt 0.744141 0.652490
vt 0.744141 0.866342
vt 0.744141 0.621940
vt 0.744141 0.835791
vt 0.744141 0.591390
vt 0.744141 0.560839
vt 0.728866 0.683040
vt 0.728866 0.652490
vt 0.728866 0.866342
vt 0.728866 0.621940
vt 0.728866 0.835791
vt 0.728866 0.591390
vt 0.728866 0.805241
vt 0.728866 0.560839
vt 0.728866 0.774691
vt 0.728866 0.530289
vt 0.728866 0.744141
vt 0.736503 0.988542
vt 0.728866 0.957992
vt 0.736503 0.499739
vt 0.728866 0.713590
vt 0.728866 0.927442
vt 0.728866 0.896892
vt 0.713590 0.560839
vt 0.713590 0.530289
vt 0.713590 0.774691
vt 0.713590 0.744141
vt 0.721228 0.988542
vt 0.713590 0.957992
vt 0.721228 0.499739
vt 0.713590 0.713590
vt 0.713590 0.927442
vt 0.713590 0.683040
vt 0.713590 0.896892
vt 0.713590 0.652490
vt 0.713590 0.866342
vt 0.713590 0.621940
vt 0.713590 0.835791
vt 0.713590 0.591390
vt 0.713590 0.805241
vt 0.698315 0.866342
vt 0.698315 0.621940
vt 0.698315 0.835791
vt 0.698315 0.591390
vt 0.698315 0.805241
vt 0.698315 0.560839
vt 0.698315 0.774691
vt 0.698315 0.530289
vt 0.698315 0.744141
vt 0.705953 0.988542
vt 0.698315 0.957992
vt 0.705953 0.499739
vt 0.698315 0.713590
vt 0.698315 0.927442
vt 0.698315 0.683040
vt 0.698315 0.896892
vt 0.698315 0.652490
vt 0.683040 0.774691
vt 0.683040 0.744141
vt 0.690678 0.988542
vt 0.683040 0.957992
vt 0.690678 0.499739
vt 0.683040 0.530289
vt 0.683040 0.713590
vt 0.683040 0.927442
vt 0.683040 0.683040
vt 0.683040 0.896892
vt 0.683040 0.652490
vt 0.683040 0.866342
vt 0.683040 0.621940
vt 0.683040 0.835791
vt 0.683040 0.591390
vt 0.683040 0.805241
vt 0.683040 0.560839
vt 0.667765 0.621940
vt 0.667765 0.866342
vt 0.667765 0.835791
vt 0.667765 0.591390
vt 0.667765 0.805241
vt 0.667765 0.560839
vt 0.667765 0.774691
vt 0.667765 0.530289
vt 0.667765 0.744141
vt 0.675403 0.988542
vt 0.667765 0.957992
vt 0.675403 0.499739
vt 0.667765 0.713590
vt 0.667765 0.927442
vt 0.667765 0.683040
vt 0.667765 0.896892
vt 0.667765 0.652490
vt 0.660128 0.499739
vt 0.652490 0.530289
vt 0.652490 0.713590
vt 0.652490 0.927442
vt 0.652490 0.683040
vt 0.652490 0.896892
vt 0.652490 0.652490
vt 0.652490 0.866342
vt 0.652490 0.621940
vt 0.652490 0.835791
vt 0.652490 0.591390
vt 0.652490 0.805241
vt 0.652490 0.560839
vt 0.652490 0.774691
vt 0.652490 0.744141
vt 0.660128 0.988542
vt 0.652490 0.957992
vt 0.637215 0.621940
vt 0.637215 0.591390
vt 0.637215 0.805241
vt 0.637215 0.560839
vt 0.637215 0.774691
vt 0.637215 0.530289
vt 0.637215 0.744141
vt 0.644852 0.988542
vt 0.637215 0.957992
vt 0.644852 0.499739
vt 0.637215 0.713590
vt 0.637215 0.927442
vt 0.637215 0.683040
vt 0.637215 0.896892
vt 0.637215 0.652490
vt 0.637215 0.866342
vt 0.637215 0.835791
vt 0.621940 0.927442
vt 0.621940 0.683040
vt 0.621940 0.896892
vt 0.621940 0.652490
vt 0.621940 0.866342
vt 0.621940 0.621940
vt 0.621940 0.835791
vt 0.621940 0.591390
vt 0.621940 0.805241
vt 0.621940 0.560839
vt 0.621940 0.774691
vt 0.621940 0.530289
vt 0.621940 0.744141
vt 0.629577 0.988542
vt 0.621940 0.957992
vt 0.629577 0.499739
vt 0.621940 0.713590
vt 0.606665 0.805241
vt 0.606665 0.560839
vt 0.606665 0.774691
vt 0.606665 0.530289
vt 0.606665 0.744141
vt 0.614302 0.988542
vt 0.606665 0.957992
vt 0.614302 0.499739
vt 0.606665 0.713590
vt 0.606665 0.927442
vt 0.606665 0.683040
vt 0.606665 0.896892
vt 0.606665 0.652490
vt 0.606665 0.866342
vt 0.606665 0.621940
vt 0.606665 0.835791
vt 0.606665 0.591390
vt 0.591390 0.683040
vt 0.591390 0.896892
vt 0.591390 0.652490
vt 0.591390 0.866342
vt 0.591390 0.621940
vt 0.591390 0.835791
vt 0.591390 0.591390
vt 0.591390 0.805241
vt 0.591390 0.560839
vt 0.591390 0.774691
vt 0.591390 0.530289
vt 0.591390 0.744141
vt 0.599027 0.988542
vt 0.591390 0.957992
vt 0.599027 0.499739
vt 0.591390 0.713590
vt 0.591390 0.927442
vt 0.576114 0.560839
vt 0.576114 0.805241
vt 0.576114 0.774691
vt 0.576114 0.530289
vt 0.576114 0.744141
vt 0.583752 0.988542
vt 0.576114 0.957992
vt 0.583752 0.499739
vt 0.576114 0.713590
vt 0.576114 0.927442
vt 0.576114 0.683040
vt 0.576114 0.896892
vt 0.576114 0.652490
vt 0.576114 0.866342
vt 0.576114 0.621940
vt 0.576114 0.835791
vt 0.576114 0.591390
vt 0.560839 0.896892
vt 0.560839 0.683040
vt 0.560839 0.652490
vt 0.560839 0.866342
vt 0.560839 0.621940
vt 0.560839 0.835791
vt 0.560839 0.591390
vt 0.560839 0.805241
vt 0.560839 0.560839
vt 0.560839 0.774691
vt 0.560839 0.530289
vt 0.560839 0.744141
vt 0.568477 0.988542
vt 0.560839 0.957992
vt 0.568477 0.499739
vt 0.560839 0.713590
vt 0.560839 0.927442
vt 0.545564 0.805241
vt 0.545564 0.774691
vt 0.545564 0.530289
vt 0.545564 0.744141
vt 0.553202 0.988542
vt 0.545564 0.957992
vt 0.553202 0.499739
vt 0.545564 0.713590
vt 0.545564 0.927442
vt 0.545564 0.683040
vt 0.545564 0.896892
vt 0.545564 0.652490
vt 0.545564 0.866342
vt 0.545564 0.621940
vt 0.545564 0.835791
vt 0.545564 0.591390
vt 0.545564 0.560839
vt 0.530289 0.683040
vt 0.530289 0.652490
vt 0.530289 0.866342
vt 0.530289 0.621940
vt 0.530289 0.835791
vt 0.530289 0.591390
vt 0.530289 0.805241
vt 0.530289 0.560839
vt 0.530289 0.774691
vt 0.530289 0.530289
vt 0.530289 0.744141
vt 0.537927 0.988542
vt 0.530289 0.957992
vt 0.537927 0.499739
vt 0.530289 0.713590
vt 0.530289 0.927442
vt 0.530289 0.896892
vt 0.515014 0.530289
vt 0.515014 0.774691
vt 0.515014 0.744141
vt 0.522652 0.988542
vt 0.515014 0.957992
vt 0.522652 0.499739
vt 0.515014 0.713590
vt 0.515014 0.927442
vt 0.515014 0.683040
vt 0.515014 0.896892
vt 0.515014 0.652490
vt 0.515014 0.866342
vt 0.515014 0.621940
vt 0.515014 0.835791
vt 0.515014 0.591390
vt 0.515014 0.805241
vt 0.515014 0.560839
vt 0.499739 0.621940
vt 0.499739 0.866342
vt 0.499739 0.835791
vt 0.499739 0.591390
vt 0.499739 0.805241
vt 0.499739 0.560839
vt 0.499739 0.774691
vt 0.499739 0.530289
vt 0.499739 0.744141
vt 0.507376 0.988542
vt 0.499739 0.957992
vt 0.507376 0.499739
vt 0.499739 0.713590
vt 0.499739 0.927442
vt 0.499739 0.683040
vt 0.499739 0.896892
vt 0.499739 0.652490
vt 0.988542 0.957992
vt 0.980905 0.988542
vt 0.973267 0.957992
vt 0.980905 0.499739
vt 0.988542 0.530289
vt 0.973267 0.530289
vt 0.988542 0.744141
vt 0.973267 0.713590
vt 0.988542 0.713590
vt 0.973267 0.927442
vt 0.988542 0.927442
vt 0.973267 0.683040
vt 0.988542 0.683040
vt 0.988542 0.896892
vt 0.973267 0.896892
vt 0.988542 0.652490
vt 0.973267 0.652490
vt 0.973267 0.866342
vt 0.988542 0.866342
vt 0.973267 0.621940
vt 0.988542 0.621940
vt 0.988542 0.835791
vt 0.973267 0.835791
vt 0.988542 0.591390
vt 0.973267 0.591390
vt 0.973267 0.805241
vt 0.988542 0.805241
vt 0.973267 0.560839
vt 0.988542 0.560839
vt 0.988542 0.774691
vt 0.973267 0.774691
vt 0.973267 0.744141
vt 0.957992 0.866342
vt 0.957992 0.835791
vt 0.957992 0.621940
vt 0.957992 0.591390
vt 0.957992 0.805241
vt 0.957992 0.560839
vt 0.957992 0.774691
vt 0.957992 0.530289
vt 0.957992 0.744141
vt 0.965630 0.988542
vt 0.957992 0.957992
vt 0.965630 0.499739
vt 0.957992 0.713590
vt 0.957992 0.927442
vt 0.957992 0.683040
vt 0.957992 0.896892
vt 0.957992 0.652490
vt 0.942717 0.713590
vt 0.942717 0.957992
vt 0.942717 0.927442
vt 0.942717 0.683040
vt 0.942717 0.896892
vt 0.942717 0.652490
vt 0.942717 0.866342
vt 0.942717 0.621940
vt 0.942717 0.835791
vt 0.942717 0.591390
vt 0.942717 0.805241
vt 0.942717 0.560839
vt 0.942717 0.774691
vt 0.942717 0.530289
vt 0.942717 0.744141
vt 0.950355 0.988542
vt 0.950355 0.499739
vt 0.927442 0.621940
vt 0.927442 0.591390
vt 0.927442 0.805241
vt 0.927442 0.560839
vt 0.927442 0.774691
vt 0.927442 0.530289
vt 0.927442 0.744141
vt 0.935079 0.988542
vt 0.927442 0.957992
vt 0.935079 0.499739
vt 0.927442 0.713590
vt 0.927442 0.927442
vt 0.927442 0.683040
vt 0.927442 0.896892
vt 0.927442 0.652490
vt 0.927442 0.866342
vt 0.927442 0.835791
vt 0.912167 0.927442
vt 0.912167 0.683040
vt 0.912167 0.896892
vt 0.912167 0.652490
vt 0.912167 0.866342
vt 0.912167 0.621940
vt 0.912167 0.835791
vt 0.912167 0.591389
vt 0.912167 0.805241
vt 0.912167 0.560839
vt 0.912167 0.774691
vt 0.912167 0.530289
vt 0.912167 0.744141
vt 0.919804 0.988542
vt 0.912167 0.957992
vt 0.919804 0.499739
vt 0.912167 0.713590
vt 0.896892 0.805241
vt 0.896892 0.560839
vt 0.896892 0.774691
vt 0.896892 0.530289
vt 0.896892 0.744141
vt 0.904529 0.988542
vt 0.896892 0.957992
vt 0.904529 0.499739
vt 0.896892 0.713590
vt 0.896892 0.927442
vt 0.896892 0.683040
vt 0.896892 0.896892
vt 0.896892 0.652490
vt 0.896892 0.866342
vt 0.896892 0.621940
vt 0.896892 0.835791
vt 0.896892 0.591389
vt 0.881617 0.683040
vt 0.881617 0.927442
vt 0.881617 0.896892
vt 0.881617 0.652490
vt 0.881617 0.866342
vt 0.881617 0.621940
vt 0.881617 0.835791
vt 0.881617 0.591389
vt 0.881617 0.805241
vt 0.881617 0.560839
vt 0.881617 0.774691
vt 0.881617 0.530289
vt 0.881617 0.744141
vt 0.889254 0.988542
vt 0.881617 0.957992
vt 0.889254 0.499739
vt 0.881617 0.713590
vt 0.873979 0.988542
vt 0.873979 0.499739
s 1
usemtl マテリアル.002
f 480/1/480 20/2/20 481/3/481
f 3/4/3 12/5/12 13/6/13
f 481/3/481 21/7/21 482/8/482
f 3/4/3 14/9/14 4/10/4
f 474/11/474 82/12/82 7/13/7
f 308/14/308 482/8/482 21/7/21
f 4/10/4 15/15/15 5/16/5
f 475/17/475 7/13/7 8/18/8
f 5/16/5 16/19/16 478/20/478
f 1/21/1 8/18/8 9/22/9
f 478/20/478 17/23/17 6/24/6
f 476/25/476 9/22/9 10/26/10
f 6/24/6 18/27/18 479/28/479
f 2/29/2 10/26/10 11/30/11
f 479/28/479 19/31/19 480/1/480
f 477/32/477 11/30/11 12/5/12
f 10/26/10 26/33/26 11/30/11
f 19/31/19 33/34/33 34/35/34
f 11/30/11 27/36/27 12/5/12
f 20/2/20 34/35/34 35/37/35
f 13/6/13 27/36/27 28/38/28
f 20/2/20 36/39/36 21/7/21
f 13/6/13 29/40/29 14/9/14
f 7/13/7 82/41/82 22/42/22
f 308/43/308 21/7/21 36/39/36
f 14/9/14 30/44/30 15/15/15
f 7/13/7 23/45/23 8/18/8
f 15/15/15 31/46/31 16/19/16
f 8/18/8 24/47/24 9/22/9
f 16/19/16 32/48/32 17/23/17
f 9/22/9 25/49/25 10/26/10
f 17/23/17 33/34/33 18/27/18
f 30/44/30 44/50/44 45/51/45
f 22/42/22 38/52/38 23/45/23
f 30/44/30 46/53/46 31/46/31
f 23/45/23 39/54/39 24/47/24
f 32/48/32 46/53/46 47/55/47
f 24/47/24 40/56/40 25/49/25
f 33/34/33 47/55/47 48/57/48
f 25/49/25 41/58/41 26/33/26
f 34/35/34 48/57/48 49/59/49
f 26/33/26 42/60/42 27/36/27
f 34/35/34 50/61/50 35/37/35
f 27/36/27 43/62/43 28/38/28
f 35/37/35 51/63/51 36/39/36
f 28/38/28 44/50/44 29/40/29
f 22/42/22 82/64/82 37/65/37
f 308/66/308 36/39/36 51/63/51
f 48/57/48 64/67/64 49/59/49
f 41/58/41 57/68/57 42/60/42
f 49/59/49 65/69/65 50/61/50
f 43/62/43 57/68/57 58/70/58
f 50/61/50 66/71/66 51/63/51
f 44/50/44 58/70/58 59/72/59
f 37/65/37 82/73/82 52/74/52
f 308/75/308 51/63/51 66/71/66
f 44/50/44 60/76/60 45/51/45
f 37/65/37 53/77/53 38/52/38
f 45/51/45 61/78/61 46/53/46
f 38/52/38 54/79/54 39/54/39
f 47/55/47 61/78/61 62/80/62
f 39/54/39 55/81/55 40/56/40
f 47/55/47 63/82/63 48/57/48
f 40/56/40 56/83/56 41/58/41
f 60/76/60 76/84/76 61/78/61
f 53/77/53 69/85/69 54/79/54
f 62/80/62 76/84/76 77/86/77
f 54/79/54 70/87/70 55/81/55
f 62/80/62 78/88/78 63/82/63
f 56/83/56 70/87/70 71/89/71
f 63/82/63 79/90/79 64/67/64
f 56/83/56 72/91/72 57/68/57
f 65/69/65 79/90/79 80/92/80
f 58/70/58 72/91/72 73/93/73
f 65/69/65 81/94/81 66/71/66
f 59/72/59 73/93/73 74/95/74
f 52/74/52 82/96/82 67/97/67
f 308/98/308 66/71/66 81/94/81
f 59/72/59 75/99/75 60/76/60
f 52/74/52 68/100/68 53/77/53
f 79/90/79 96/101/96 80/92/80
f 73/93/73 88/102/88 89/103/89
f 81/94/81 96/101/96 97/104/97
f 74/95/74 89/103/89 90/105/90
f 67/97/67 82/106/82 83/107/83
f 308/108/308 81/94/81 97/104/97
f 74/95/74 91/109/91 75/99/75
f 67/97/67 84/110/84 68/100/68
f 75/99/75 92/111/92 76/84/76
f 68/100/68 85/112/85 69/85/69
f 77/86/77 92/111/92 93/113/93
f 69/85/69 86/114/86 70/87/70
f 77/86/77 94/115/94 78/88/78
f 71/89/71 86/114/86 87/116/87
f 78/88/78 95/117/95 79/90/79
f 71/89/71 88/102/88 72/91/72
f 84/110/84 100/118/100 85/112/85
f 93/113/93 107/119/107 108/120/108
f 85/112/85 101/121/101 86/114/86
f 93/113/93 109/122/109 94/115/94
f 87/116/87 101/121/101 102/123/102
f 95/117/95 109/122/109 110/124/110
f 87/116/87 103/125/103 88/102/88
f 96/101/96 110/124/110 111/126/111
f 89/103/89 103/125/103 104/127/104
f 96/101/96 112/128/112 97/104/97
f 90/105/90 104/127/104 105/129/105
f 83/107/83 82/130/82 98/131/98
f 308/132/308 97/104/97 112/128/112
f 90/105/90 106/133/106 91/109/91
f 84/110/84 98/131/98 99/134/99
f 91/109/91 107/119/107 92/111/92
f 104/127/104 118/135/118 119/136/119
f 111/126/111 127/137/127 112/128/112
f 105/129/105 119/136/119 120/138/120
f 98/131/98 82/139/82 113/140/113
f 308/141/308 112/128/112 127/137/127
f 105/129/105 121/142/121 106/133/106
f 99/134/99 113/140/113 114/143/114
f 106/133/106 122/144/122 107/119/107
f 99/134/99 115/145/115 100/118/100
f 108/120/108 122/144/122 123/146/123
f 100/118/100 116/147/116 101/121/101
f 108/120/108 124/148/124 109/122/109
f 102/123/102 116/147/116 117/149/117
f 110/124/110 124/148/124 125/150/125
f 102/123/102 118/135/118 103/125/103
f 110/124/110 126/151/126 111/126/111
f 123/146/123 137/152/137 138/153/138
f 115/145/115 131/154/131 116/147/116
f 123/146/123 139/155/139 124/148/124
f 117/149/117 131/154/131 132/156/132
f 125/150/125 139/155/139 140/157/140
f 117/149/117 133/158/133 118/135/118
f 125/150/125 141/159/141 126/151/126
f 119/136/119 133/158/133 134/160/134
f 126/151/126 142/161/142 127/137/127
f 120/138/120 134/160/134 135/162/135
f 113/140/113 82/163/82 128/164/128
f 308/165/308 127/137/127 142/161/142
f 120/138/120 136/166/136 121/142/121
f 113/140/113 129/167/129 114/143/114
f 121/142/121 137/152/137 122/144/122
f 114/143/114 130/168/130 115/145/115
f 142/161/142 156/169/156 157/170/157
f 135/162/135 149/171/149 150/172/150
f 128/164/128 82/173/82 143/174/143
f 308/175/308 142/161/142 157/170/157
f 135/162/135 151/176/151 136/166/136
f 128/164/128 144/177/144 129/167/129
f 136/166/136 152/178/152 137/152/137
f 130/168/130 144/177/144 145/179/145
f 138/153/138 152/178/152 153/180/153
f 130/168/130 146/181/146 131/154/131
f 138/153/138 154/182/154 139/155/139
f 132/156/132 146/181/146 147/183/147
f 140/157/140 154/182/154 155/184/155
f 132/156/132 148/185/148 133/158/133
f 140/157/140 156/169/156 141/159/141
f 134/160/134 148/185/148 149/171/149
f 145/179/145 161/186/161 146/181/146
f 153/180/153 169/187/169 154/182/154
f 147/183/147 161/186/161 162/188/162
f 155/184/155 169/187/169 170/189/170
f 147/183/147 163/190/163 148/185/148
f 155/184/155 171/191/171 156/169/156
f 149/171/149 163/190/163 164/192/164
f 156/169/156 172/193/172 157/170/157
f 150/172/150 164/192/164 165/194/165
f 143/174/143 82/195/82 158/196/158
f 308/197/308 157/170/157 172/193/172
f 150/172/150 166/198/166 151/176/151
f 143/174/143 159/199/159 144/177/144
f 151/176/151 167/200/167 152/178/152
f 145/179/145 159/199/159 160/201/160
f 153/180/153 167/200/167 168/202/168
f 165/194/165 179/203/179 180/204/180
f 158/196/158 82/205/82 173/206/173
f 308/207/308 172/193/172 187/208/187
f 165/194/165 181/209/181 166/198/166
f 158/196/158 174/210/174 159/199/159
f 166/198/166 182/211/182 167/200/167
f 159/199/159 175/212/175 160/201/160
f 168/202/168 182/211/182 183/213/183
f 160/201/160 176/214/176 161/186/161
f 168/202/168 184/215/184 169/187/169
f 162/188/162 176/214/176 177/216/177
f 169/187/169 185/217/185 170/189/170
f 162/188/162 178/218/178 163/190/163
f 171/191/171 185/217/185 186/219/186
f 164/192/164 178/218/178 179/203/179
f 172/193/172 186/219/186 187/208/187
f 183/213/183 199/220/199 184/215/184
f 177/216/177 191/221/191 192/222/192
f 185/217/185 199/220/199 200/223/200
f 177/216/177 193/224/193 178/218/178
f 185/217/185 201/225/201 186/219/186
f 179/203/179 193/224/193 194/226/194
f 186/219/186 202/227/202 187/208/187
f 180/204/180 194/226/194 195/228/195
f 173/206/173 82/229/82 188/230/188
f 308/231/308 187/208/187 202/227/202
f 180/204/180 196/232/196 181/209/181
f 174/210/174 188/230/188 189/233/189
f 181/209/181 197/234/197 182/211/182
f 175/212/175 189/233/189 190/235/190
f 183/213/183 197/234/197 198/236/198
f 175/212/175 191/221/191 176/214/176
f 308/237/308 202/227/202 217/238/217
f 195/228/195 211/239/211 196/232/196
f 188/230/188 204/240/204 189/233/189
f 196/232/196 212/241/212 197/234/197
f 189/233/189 205/242/205 190/235/190
f 198/236/198 212/241/212 213/243/213
f 190/235/190 206/244/206 191/221/191
f 198/236/198 214/245/214 199/220/199
f 192/222/192 206/244/206 207/246/207
f 200/223/200 214/245/214 215/247/215
f 192/222/192 208/248/208 193/224/193
f 200/223/200 216/249/216 201/225/201
f 194/226/194 208/248/208 209/250/209
f 201/225/201 217/238/217 202/227/202
f 195/228/195 209/250/209 210/251/210
f 188/230/188 82/252/82 203/253/203
f 215/247/215 229/254/229 230/255/230
f 207/246/207 223/256/223 208/248/208
f 215/247/215 231/257/231 216/249/216
f 209/250/209 223/256/223 224/258/224
f 216/249/216 232/259/232 217/238/217
f 210/251/210 224/258/224 225/260/225
f 203/253/203 82/261/82 218/262/218
f 308/263/308 217/238/217 232/259/232
f 210/251/210 226/264/226 211/239/211
f 203/253/203 219/265/219 204/240/204
f 211/239/211 227/266/227 212/241/212
f 204/240/204 220/267/220 205/242/205
f 213/243/213 227/266/227 228/268/228
f 205/242/205 221/269/221 206/244/206
f 213/243/213 229/254/229 214/245/214
f 207/246/207 221/269/221 222/270/222
f 218/262/218 234/271/234 219/265/219
f 226/264/226 242/272/242 227/266/227
f 220/267/220 234/271/234 235/273/235
f 228/268/228 242/272/242 243/274/243
f 220/267/220 236/275/236 221/269/221
f 228/268/228 244/276/244 229/254/229
f 222/270/222 236/275/236 237/277/237
f 230/255/230 244/276/244 245/278/245
f 222/270/222 238/279/238 223/256/223
f 230/255/230 246/280/246 231/257/231
f 224/258/224 238/279/238 239/281/239
f 232/259/232 246/280/246 247/282/247
f 225/260/225 239/281/239 240/283/240
f 218/262/218 82/284/82 233/285/233
f 308/286/308 232/259/232 247/282/247
f 225/260/225 241/287/241 226/264/226
f 237/277/237 253/288/253 238/279/238
f 245/278/245 261/289/261 246/280/246
f 239/281/239 253/288/253 254/290/254
f 246/280/246 262/291/262 247/282/247
f 240/283/240 254/290/254 255/292/255
f 233/285/233 82/293/82 248/294/248
f 308/295/308 247/282/247 262/291/262
f 240/283/240 256/296/256 241/287/241
f 233/285/233 249/297/249 234/271/234
f 241/287/241 257/298/257 242/272/242
f 234/271/234 250/299/250 235/273/235
f 243/274/243 257/298/257 258/300/258
f 235/273/235 251/301/251 236/275/236
f 243/274/243 259/302/259 244/276/244
f 237/277/237 251/301/251 252/303/252
f 245/278/245 259/302/259 260/304/260
f 256/296/256 272/305/272 257/298/257
f 249/297/249 265/306/265 250/299/250
f 258/300/258 272/305/272 273/307/273
f 250/299/250 266/308/266 251/301/251
f 258/300/258 274/309/274 259/302/259
f 252/303/252 266/308/266 267/310/267
f 260/304/260 274/309/274 275/311/275
f 252/303/252 268/312/268 253/288/253
f 260/304/260 276/313/276 261/289/261
f 254/290/254 268/312/268 269/314/269
f 261/289/261 277/315/277 262/291/262
f 255/292/255 269/314/269 270/316/270
f 248/294/248 82/317/82 263/318/263
f 308/319/308 262/291/262 277/315/277
f 255/292/255 271/320/271 256/296/256
f 249/297/249 263/318/263 264/321/264
f 275/311/275 291/322/291 276/313/276
f 269/314/269 283/323/283 284/324/284
f 277/315/277 291/322/291 292/325/292
f 270/316/270 284/324/284 285/326/285
f 263/318/263 82/327/82 278/328/278
f 308/329/308 277/315/277 292/325/292
f 270/316/270 286/330/286 271/320/271
f 264/321/264 278/328/278 279/331/279
f 271/320/271 287/332/287 272/305/272
f 264/321/264 280/333/280 265/306/265
f 273/307/273 287/332/287 288/334/288
f 265/306/265 281/335/281 266/308/266
f 273/307/273 289/336/289 274/309/274
f 267/310/267 281/335/281 282/337/282
f 275/311/275 289/336/289 290/338/290
f 267/310/267 283/323/283 268/312/268
f 279/331/279 295/339/295 280/333/280
f 288/334/288 302/340/302 303/341/303
f 280/333/280 296/342/296 281/335/281
f 288/334/288 304/343/304 289/336/289
f 282/337/282 296/342/296 297/344/297
f 290/338/290 304/343/304 305/345/305
f 282/337/282 298/346/298 283/323/283
f 290/338/290 306/347/306 291/322/291
f 284/324/284 298/346/298 299/348/299
f 292/325/292 306/347/306 307/349/307
f 285/326/285 299/348/299 300/350/300
f 278/328/278 82/351/82 293/352/293
f 308/353/308 292/325/292 307/349/307
f 285/326/285 301/354/301 286/330/286
f 278/328/278 294/355/294 279/331/279
f 286/330/286 302/340/302 287/332/287
f 299/348/299 314/356/314 315/357/315
f 306/347/306 323/358/323 307/349/307
f 300/350/300 315/357/315 316/359/316
f 293/352/293 82/360/82 309/361/309
f 308/362/308 307/349/307 323/358/323
f 300/350/300 317/363/317 301/354/301
f 293/352/293 310/364/310 294/355/294
f 301/354/301 318/365/318 302/340/302
f 294/355/294 311/366/311 295/339/295
f 303/341/303 318/365/318 319/367/319
f 295/339/295 312/368/312 296/342/296
f 303/341/303 320/369/320 304/343/304
f 297/344/297 312/368/312 313/370/313
f 305/345/305 320/369/320 321/371/321
f 297/344/297 314/356/314 298/346/298
f 305/345/305 322/372/322 306/347/306
f 319/367/319 333/373/333 334/374/334
f 311/366/311 327/375/327 312/368/312
f 319/367/319 335/376/335 320/369/320
f 312/368/312 328/377/328 313/370/313
f 321/371/321 335/376/335 336/378/336
f 313/370/313 329/379/329 314/356/314
f 321/371/321 337/380/337 322/372/322
f 315/357/315 329/379/329 330/381/330
f 322/372/322 338/382/338 323/358/323
f 316/359/316 330/381/330 331/383/331
f 309/361/309 82/384/82 324/385/324
f 308/386/308 323/358/323 338/382/338
f 316/359/316 332/387/332 317/363/317
f 309/361/309 325/388/325 310/364/310
f 317/363/317 333/373/333 318/365/318
f 310/364/310 326/389/326 311/366/311
f 337/380/337 353/390/353 338/382/338
f 331/383/331 345/391/345 346/392/346
f 324/385/324 82/393/82 339/394/339
f 308/395/308 338/382/338 353/390/353
f 331/383/331 347/396/347 332/387/332
f 324/385/324 340/397/340 325/388/325
f 332/387/332 348/398/348 333/373/333
f 325/388/325 341/399/341 326/389/326
f 334/374/334 348/398/348 349/400/349
f 326/389/326 342/401/342 327/375/327
f 334/374/334 350/402/350 335/376/335
f 328/377/328 342/401/342 343/403/343
f 336/378/336 350/402/350 351/404/351
f 328/377/328 344/405/344 329/379/329
f 336/378/336 352/406/352 337/380/337
f 330/381/330 344/405/344 345/391/345
f 349/400/349 365/407/365 350/402/350
f 343/403/343 357/408/357 358/409/358
f 351/404/351 365/407/365 366/410/366
f 343/403/343 359/411/359 344/405/344
f 351/404/351 367/412/367 352/406/352
f 345/391/345 359/411/359 360/413/360
f 352/406/352 368/414/368 353/390/353
f 346/392/346 360/413/360 361/415/361
f 339/394/339 82/416/82 354/417/354
f 308/418/308 353/390/353 368/414/368
f 346/392/346 362/419/362 347/396/347
f 339/394/339 355/420/355 340/397/340
f 347/396/347 363/421/363 348/398/348
f 341/399/341 355/420/355 356/422/356
f 349/400/349 363/421/363 364/423/364
f 341/399/341 357/408/357 342/401/342
f 354/424/354 82/425/82 369/426/369
f 308/427/308 368/428/368 383/429/383
f 361/430/361 377/431/377 362/432/362
f 354/424/354 370/433/370 355/434/355
f 362/432/362 378/435/378 363/436/363
f 356/437/356 370/433/370 371/438/371
f 364/439/364 378/435/378 379/440/379
f 356/437/356 372/441/372 357/442/357
f 364/439/364 380/443/380 365/444/365
f 358/445/358 372/441/372 373/446/373
f 366/447/366 380/443/380 381/448/381
f 358/445/358 374/449/374 359/450/359
f 366/447/366 382/451/382 367/452/367
f 360/453/360 374/449/374 375/454/375
f 367/452/367 383/429/383 368/428/368
f 361/430/361 375/454/375 376/455/376
f 373/446/373 387/456/387 388/457/388
f 381/448/381 395/458/395 396/459/396
f 373/446/373 389/460/389 374/449/374
f 381/448/381 397/461/397 382/451/382
f 375/454/375 389/460/389 390/462/390
f 382/451/382 398/463/398 383/429/383
f 376/455/376 390/462/390 391/464/391
f 369/426/369 82/465/82 384/466/384
f 308/467/308 383/429/383 398/463/398
f 376/455/376 392/468/392 377/431/377
f 369/426/369 385/469/385 370/433/370
f 377/431/377 393/470/393 378/435/378
f 371/438/371 385/469/385 386/471/386
f 379/440/379 393/470/393 394/472/394
f 371/438/371 387/456/387 372/441/372
f 379/440/379 395/458/395 380/443/380
f 391/464/391 407/473/407 392/468/392
f 385/469/385 399/474/399 400/475/400
f 392/468/392 408/476/408 393/470/393
f 385/469/385 401/477/401 386/471/386
f 394/472/394 408/476/408 409/478/409
f 386/471/386 402/479/402 387/456/387
f 394/472/394 410/480/410 395/458/395
f 388/457/388 402/479/402 403/481/403
f 396/459/396 410/480/410 411/482/411
f 388/457/388 404/483/404 389/460/389
f 397/461/397 411/482/411 412/484/412
f 390/462/390 404/483/404 405/485/405
f 397/461/397 413/486/413 398/463/398
f 391/464/391 405/485/405 406/487/406
f 384/466/384 82/488/82 399/474/399
f 308/489/308 398/463/398 413/486/413
f 411/482/411 425/490/425 426/491/426
f 403/481/403 419/492/419 404/483/404
f 411/482/411 427/493/427 412/484/412
f 405/485/405 419/492/419 420/494/420
f 412/484/412 428/495/428 413/486/413
f 406/487/406 420/494/420 421/496/421
f 399/474/399 82/497/82 414/498/414
f 308/499/308 413/486/413 428/495/428
f 406/487/406 422/500/422 407/473/407
f 399/474/399 415/501/415 400/475/400
f 407/473/407 423/502/423 408/476/408
f 401/477/401 415/501/415 416/503/416
f 409/478/409 423/502/423 424/504/424
f 401/477/401 417/505/417 402/479/402
f 409/478/409 425/490/425 410/480/410
f 403/481/403 417/505/417 418/506/418
f 414/498/414 430/507/430 415/501/415
f 422/500/422 438/508/438 423/502/423
f 416/503/416 430/507/430 431/509/431
f 424/504/424 438/508/438 439/510/439
f 416/503/416 432/511/432 417/505/417
f 424/504/424 440/512/440 425/490/425
f 418/506/418 432/511/432 433/513/433
f 426/491/426 440/512/440 441/514/441
f 418/506/418 434/515/434 419/492/419
f 426/491/426 442/516/442 427/493/427
f 420/494/420 434/515/434 435/517/435
f 427/493/427 443/518/443 428/495/428
f 421/496/421 435/517/435 436/519/436
f 414/498/414 82/520/82 429/521/429
f 308/522/308 428/495/428 443/518/443
f 421/496/421 437/523/437 422/500/422
f 433/513/433 449/524/449 434/515/434
f 441/514/441 457/525/457 442/516/442
f 435/517/435 449/524/449 450/526/450
f 442/516/442 458/527/458 443/518/443
f 436/519/436 450/526/450 451/528/451
f 429/521/429 82/529/82 444/530/444
f 308/531/308 443/518/443 458/527/458
f 436/519/436 452/532/452 437/523/437
f 430/507/430 444/530/444 445/533/445
f 437/523/437 453/534/453 438/508/438
f 430/507/430 446/535/446 431/509/431
f 439/510/439 453/534/453 454/536/454
f 431/509/431 447/537/447 432/511/432
f 439/510/439 455/538/455 440/512/440
f 433/513/433 447/537/447 448/539/448
f 441/514/441 455/538/455 456/540/456
f 452/532/452 468/541/468 453/534/453
f 446/535/446 460/542/460 461/543/461
f 454/536/454 468/541/468 469/544/469
f 446/535/446 462/545/462 447/537/447
f 454/536/454 470/546/470 455/538/455
f 448/539/448 462/545/462 463/547/463
f 456/540/456 470/546/470 471/548/471
f 448/539/448 464/549/464 449/524/449
f 456/540/456 472/550/472 457/525/457
f 450/526/450 464/549/464 465/551/465
f 458/527/458 472/550/472 473/552/473
f 451/528/451 465/551/465 466/553/466
f 444/530/444 82/554/82 459/555/459
f 308/556/308 458/527/458 473/552/473
f 451/528/451 467/557/467 452/532/452
f 444/530/444 460/542/460 445/533/445
f 471/548/471 481/3/481 472/550/472
f 465/551/465 477/32/477 3/4/3
f 472/550/472 482/8/482 473/552/473
f 466/553/466 3/4/3 4/10/4
f 459/555/459 82/558/82 474/11/474
f 308/559/308 473/552/473 482/8/482
f 466/553/466 5/16/5 467/557/467
f 460/542/460 474/11/474 475/17/475
f 467/557/467 478/20/478 468/541/468
f 461/543/461 475/17/475 1/21/1
f 468/541/468 6/24/6 469/544/469
f 462/545/462 1/21/1 476/25/476
f 469/544/469 479/28/479 470/546/470
f 463/547/463 476/25/476 2/29/2
f 471/548/471 479/28/479 480/1/480
f 464/549/464 2/29/2 477/32/477
f 480/1/480 19/31/19 20/2/20
f 3/4/3 477/32/477 12/5/12
f 481/3/481 20/2/20 21/7/21
f 3/4/3 13/6/13 14/9/14
f 4/10/4 14/9/14 15/15/15
f 475/17/475 474/11/474 7/13/7
f 5/16/5 15/15/15 16/19/16
f 1/21/1 475/17/475 8/18/8
f 478/20/478 16/19/16 17/23/17
f 476/25/476 1/21/1 9/22/9
f 6/24/6 17/23/17 18/27/18
f 2/29/2 476/25/476 10/26/10
f 479/28/479 18/27/18 19/31/19
f 477/32/477 2/29/2 11/30/11
f 10/26/10 25/49/25 26/33/26
f 19/31/19 18/27/18 33/34/33
f 11/30/11 26/33/26 27/36/27
f 20/2/20 19/31/19 34/35/34
f 13/6/13 12/5/12 27/36/27
f 20/2/20 35/37/35 36/39/36
f 13/6/13 28/38/28 29/40/29
f 14/9/14 29/40/29 30/44/30
f 7/13/7 22/42/22 23/45/23
f 15/15/15 30/44/30 31/46/31
f 8/18/8 23/45/23 24/47/24
f 16/19/16 31/46/31 32/48/32
f 9/22/9 24/47/24 25/49/25
f 17/23/17 32/48/32 33/34/33
f 30/44/30 29/40/29 44/50/44
f 22/42/22 37/65/37 38/52/38
f 30/44/30 45/51/45 46/53/46
f 23/45/23 38/52/38 39/54/39
f 32/48/32 31/46/31 46/53/46
f 24/47/24 39/54/39 40/56/40
f 33/34/33 32/48/32 47/55/47
f 25/49/25 40/56/40 41/58/41
f 34/35/34 33/34/33 48/57/48
f 26/33/26 41/58/41 42/60/42
f 34/35/34 49/59/49 50/61/50
f 27/36/27 42/60/42 43/62/43
f 35/37/35 50/61/50 51/63/51
f 28/38/28 43/62/43 44/50/44
f 48/57/48 63/82/63 64/67/64
f 41/58/41 56/83/56 57/68/57
f 49/59/49 64/67/64 65/69/65
f 43/62/43 42/60/42 57/68/57
f 50/61/50 65/69/65 66/71/66
f 44/50/44 43/62/43 58/70/58
f 44/50/44 59/72/59 60/76/60
f 37/65/37 52/74/52 53/77/53
f 45/51/45 60/76/60 61/78/61
f 38/52/38 53/77/53 54/79/54
f 47/55/47 46/53/46 61/78/61
f 39/54/39 54/79/54 55/81/55
f 47/55/47 62/80/62 63/82/63
f 40/56/40 55/81/55 56/83/56
f 60/76/60 75/99/75 76/84/76
f 53/77/53 68/100/68 69/85/69
f 62/80/62 61/78/61 76/84/76
f 54/79/54 69/85/69 70/87/70
f 62/80/62 77/86/77 78/88/78
f 56/83/56 55/81/55 70/87/70
f 63/82/63 78/88/78 79/90/79
f 56/83/56 71/89/71 72/91/72
f 65/69/65 64/67/64 79/90/79
f 58/70/58 57/68/57 72/91/72
f 65/69/65 80/92/80 81/94/81
f 59/72/59 58/70/58 73/93/73
f 59/72/59 74/95/74 75/99/75
f 52/74/52 67/97/67 68/100/68
f 79/90/79 95/117/95 96/101/96
f 73/93/73 72/91/72 88/102/88
f 81/94/81 80/92/80 96/101/96
f 74/95/74 73/93/73 89/103/89
f 74/95/74 90/105/90 91/109/91
f 67/97/67 83/107/83 84/110/84
f 75/99/75 91/109/91 92/111/92
f 68/100/68 84/110/84 85/112/85
f 77/86/77 76/84/76 92/111/92
f 69/85/69 85/112/85 86/114/86
f 77/86/77 93/113/93 94/115/94
f 71/89/71 70/87/70 86/114/86
f 78/88/78 94/115/94 95/117/95
f 71/89/71 87/116/87 88/102/88
f 84/110/84 99/134/99 100/118/100
f 93/113/93 92/111/92 107/119/107
f 85/112/85 100/118/100 101/121/101
f 93/113/93 108/120/108 109/122/109
f 87/116/87 86/114/86 101/121/101
f 95/117/95 94/115/94 109/122/109
f 87/116/87 102/123/102 103/125/103
f 96/101/96 95/117/95 110/124/110
f 89/103/89 88/102/88 103/125/103
f 96/101/96 111/126/111 112/128/112
f 90/105/90 89/103/89 104/127/104
f 90/105/90 105/129/105 106/133/106
f 84/110/84 83/107/83 98/131/98
f 91/109/91 106/133/106 107/119/107
f 104/127/104 103/125/103 118/135/118
f 111/126/111 126/151/126 127/137/127
f 105/129/105 104/127/104 119/136/119
f 105/129/105 120/138/120 121/142/121
f 99/134/99 98/131/98 113/140/113
f 106/133/106 121/142/121 122/144/122
f 99/134/99 114/143/114 115/145/115
f 108/120/108 107/119/107 122/144/122
f 100/118/100 115/145/115 116/147/116
f 108/120/108 123/146/123 124/148/124
f 102/123/102 101/121/101 116/147/116
f 110/124/110 109/122/109 124/148/124
f 102/123/102 117/149/117 118/135/118
f 110/124/110 125/150/125 126/151/126
f 123/146/123 122/144/122 137/152/137
f 115/145/115 130/168/130 131/154/131
f 123/146/123 138/153/138 139/155/139
f 117/149/117 116/147/116 131/154/131
f 125/150/125 124/148/124 139/155/139
f 117/149/117 132/156/132 133/158/133
f 125/150/125 140/157/140 141/159/141
f 119/136/119 118/135/118 133/158/133
f 126/151/126 141/159/141 142/161/142
f 120/138/120 119/136/119 134/160/134
f 120/138/120 135/162/135 136/166/136
f 113/140/113 128/164/128 129/167/129
f 121/142/121 136/166/136 137/152/137
f 114/143/114 129/167/129 130/168/130
f 142/161/142 141/159/141 156/169/156
f 135/162/135 134/160/134 149/171/149
f 135/162/135 150/172/150 151/176/151
f 128/164/128 143/174/143 144/177/144
f 136/166/136 151/176/151 152/178/152
f 130/168/130 129/167/129 144/177/144
f 138/153/138 137/152/137 152/178/152
f 130/168/130 145/179/145 146/181/146
f 138/153/138 153/180/153 154/182/154
f 132/156/132 131/154/131 146/181/146
f 140/157/140 139/155/139 154/182/154
f 132/156/132 147/183/147 148/185/148
f 140/157/140 155/184/155 156/169/156
f 134/160/134 133/158/133 148/185/148
f 145/179/145 160/201/160 161/186/161
f 153/180/153 168/202/168 169/187/169
f 147/183/147 146/181/146 161/186/161
f 155/184/155 154/182/154 169/187/169
f 147/183/147 162/188/162 163/190/163
f 155/184/155 170/189/170 171/191/171
f 149/171/149 148/185/148 163/190/163
f 156/169/156 171/191/171 172/193/172
f 150/172/150 149/171/149 164/192/164
f 150/172/150 165/194/165 166/198/166
f 143/174/143 158/196/158 159/199/159
f 151/176/151 166/198/166 167/200/167
f 145/179/145 144/177/144 159/199/159
f 153/180/153 152/178/152 167/200/167
f 165/194/165 164/192/164 179/203/179
f 165/194/165 180/204/180 181/209/181
f 158/196/158 173/206/173 174/210/174
f 166/198/166 181/209/181 182/211/182
f 159/199/159 174/210/174 175/212/175
f 168/202/168 167/200/167 182/211/182
f 160/201/160 175/212/175 176/214/176
f 168/202/168 183/213/183 184/215/184
f 162/188/162 161/186/161 176/214/176
f 169/187/169 184/215/184 185/217/185
f 162/188/162 177/216/177 178/218/178
f 171/191/171 170/189/170 185/217/185
f 164/192/164 163/190/163 178/218/178
f 172/193/172 171/191/171 186/219/186
f 183/213/183 198/236/198 199/220/199
f 177/216/177 176/214/176 191/221/191
f 185/217/185 184/215/184 199/220/199
f 177/216/177 192/222/192 193/224/193
f 185/217/185 200/223/200 201/225/201
f 179/203/179 178/218/178 193/224/193
f 186/219/186 201/225/201 202/227/202
f 180/204/180 179/203/179 194/226/194
f 180/204/180 195/228/195 196/232/196
f 174/210/174 173/206/173 188/230/188
f 181/209/181 196/232/196 197/234/197
f 175/212/175 174/210/174 189/233/189
f 183/213/183 182/211/182 197/234/197
f 175/212/175 190/235/190 191/221/191
f 195/228/195 210/251/210 211/239/211
f 188/230/188 203/253/203 204/240/204
f 196/232/196 211/239/211 212/241/212
f 189/233/189 204/240/204 205/242/205
f 198/236/198 197/234/197 212/241/212
f 190/235/190 205/242/205 206/244/206
f 198/236/198 213/243/213 214/245/214
f 192/222/192 191/221/191 206/244/206
f 200/223/200 199/220/199 214/245/214
f 192/222/192 207/246/207 208/248/208
f 200/223/200 215/247/215 216/249/216
f 194/226/194 193/224/193 208/248/208
f 201/225/201 216/249/216 217/238/217
f 195/228/195 194/226/194 209/250/209
f 215/247/215 214/245/214 229/254/229
f 207/246/207 222/270/222 223/256/223
f 215/247/215 230/255/230 231/257/231
f 209/250/209 208/248/208 223/256/223
f 216/249/216 231/257/231 232/259/232
f 210/251/210 209/250/209 224/258/224
f 210/251/210 225/260/225 226/264/226
f 203/253/203 218/262/218 219/265/219
f 211/239/211 226/264/226 227/266/227
f 204/240/204 219/265/219 220/267/220
f 213/243/213 212/241/212 227/266/227
f 205/242/205 220/267/220 221/269/221
f 213/243/213 228/268/228 229/254/229
f 207/246/207 206/244/206 221/269/221
f 218/262/218 233/285/233 234/271/234
f 226/264/226 241/287/241 242/272/242
f 220/267/220 219/265/219 234/271/234
f 228/268/228 227/266/227 242/272/242
f 220/267/220 235/273/235 236/275/236
f 228/268/228 243/274/243 244/276/244
f 222/270/222 221/269/221 236/275/236
f 230/255/230 229/254/229 244/276/244
f 222/270/222 237/277/237 238/279/238
f 230/255/230 245/278/245 246/280/246
f 224/258/224 223/256/223 238/279/238
f 232/259/232 231/257/231 246/280/246
f 225/260/225 224/258/224 239/281/239
f 225/260/225 240/283/240 241/287/241
f 237/277/237 252/303/252 253/288/253
f 245/278/245 260/304/260 261/289/261
f 239/281/239 238/279/238 253/288/253
f 246/280/246 261/289/261 262/291/262
f 240/283/240 239/281/239 254/290/254
f 240/283/240 255/292/255 256/296/256
f 233/285/233 248/294/248 249/297/249
f 241/287/241 256/296/256 257/298/257
f 234/271/234 249/297/249 250/299/250
f 243/274/243 242/272/242 257/298/257
f 235/273/235 250/299/250 251/301/251
f 243/274/243 258/300/258 259/302/259
f 237/277/237 236/275/236 251/301/251
f 245/278/245 244/276/244 259/302/259
f 256/296/256 271/320/271 272/305/272
f 249/297/249 264/321/264 265/306/265
f 258/300/258 257/298/257 272/305/272
f 250/299/250 265/306/265 266/308/266
f 258/300/258 273/307/273 274/309/274
f 252/303/252 251/301/251 266/308/266
f 260/304/260 259/302/259 274/309/274
f 252/303/252 267/310/267 268/312/268
f 260/304/260 275/311/275 276/313/276
f 254/290/254 253/288/253 268/312/268
f 261/289/261 276/313/276 277/315/277
f 255/292/255 254/290/254 269/314/269
f 255/292/255 270/316/270 271/320/271
f 249/297/249 248/294/248 263/318/263
f 275/311/275 290/338/290 291/322/291
f 269/314/269 268/312/268 283/323/283
f 277/315/277 276/313/276 291/322/291
f 270/316/270 269/314/269 284/324/284
f 270/316/270 285/326/285 286/330/286
f 264/321/264 263/318/263 278/328/278
f 271/320/271 286/330/286 287/332/287
f 264/321/264 279/331/279 280/333/280
f 273/307/273 272/305/272 287/332/287
f 265/306/265 280/333/280 281/335/281
f 273/307/273 288/334/288 289/336/289
f 267/310/267 266/308/266 281/335/281
f 275/311/275 274/309/274 289/336/289
f 267/310/267 282/337/282 283/323/283
f 279/331/279 294/355/294 295/339/295
f 288/334/288 287/332/287 302/340/302
f 280/333/280 295/339/295 296/342/296
f 288/334/288 303/341/303 304/343/304
f 282/337/282 281/335/281 296/342/296
f 290/338/290 289/336/289 304/343/304
f 282/337/282 297/344/297 298/346/298
f 290/338/290 305/345/305 306/347/306
f 284/324/284 283/323/283 298/346/298
f 292/325/292 291/322/291 306/347/306
f 285/326/285 284/324/284 299/348/299
f 285/326/285 300/350/300 301/354/301
f 278/328/278 293/352/293 294/355/294
f 286/330/286 301/354/301 302/340/302
f 299/348/299 298/346/298 314/356/314
f 306/347/306 322/372/322 323/358/323
f 300/350/300 299/348/299 315/357/315
f 300/350/300 316/359/316 317/363/317
f 293/352/293 309/361/309 310/364/310
f 301/354/301 317/363/317 318/365/318
f 294/355/294 310/364/310 311/366/311
f 303/341/303 302/340/302 318/365/318
f 295/339/295 311/366/311 312/368/312
f 303/341/303 319/367/319 320/369/320
f 297/344/297 296/342/296 312/368/312
f 305/345/305 304/343/304 320/369/320
f 297/344/297 313/370/313 314/356/314
f 305/345/305 321/371/321 322/372/322
f 319/367/319 318/365/318 333/373/333
f 311/366/311 326/389/326 327/375/327
f 319/367/319 334/374/334 335/376/335
f 312/368/312 327/375/327 328/377/328
f 321/371/321 320/369/320 335/376/335
f 313/370/313 328/377/328 329/379/329
f 321/371/321 336/378/336 337/380/337
f 315/357/315 314/356/314 329/379/329
f 322/372/322 337/380/337 338/382/338
f 316/359/316 315/357/315 330/381/330
f 316/359/316 331/383/331 332/387/332
f 309/361/309 324/385/324 325/388/325
f 317/363/317 332/387/332 333/373/333
f 310/364/310 325/388/325 326/389/326
f 337/380/337 352/406/352 353/390/353
f 331/383/331 330/381/330 345/391/345
f 331/383/331 346/392/346 347/396/347
f 324/385/324 339/394/339 340/397/340
f 332/387/332 347/396/347 348/398/348
f 325/388/325 340/397/340 341/399/341
f 334/374/334 333/373/333 348/398/348
f 326/389/326 341/399/341 342/401/342
f 334/374/334 349/400/349 350/402/350
f 328/377/328 327/375/327 342/401/342
f 336/378/336 335/376/335 350/402/350
f 328/377/328 343/403/343 344/405/344
f 336/378/336 351/404/351 352/406/352
f 330/381/330 329/379/329 344/405/344
f 349/400/349 364/423/364 365/407/365
f 343/403/343 342/401/342 357/408/357
f 351/404/351 350/402/350 365/407/365
f 343/403/343 358/409/358 359/411/359
f 351/404/351 366/410/366 367/412/367
f 345/391/345 344/405/344 359/411/359
f 352/406/352 367/412/367 368/414/368
f 346/392/346 345/391/345 360/413/360
f 346/392/346 361/415/361 362/419/362
f 339/394/339 354/417/354 355/420/355
f 347/396/347 362/419/362 363/421/363
f 341/399/341 340/397/340 355/420/355
f 349/400/349 348/398/348 363/421/363
f 341/399/341 356/422/356 357/408/357
f 361/430/361 376/455/376 377/431/377
f 354/424/354 369/426/369 370/433/370
f 362/432/362 377/431/377 378/435/378
f 356/437/356 355/434/355 370/433/370
f 364/439/364 363/436/363 378/435/378
f 356/437/356 371/438/371 372/441/372
f 364/439/364 379/440/379 380/443/380
f 358/445/358 357/442/357 372/441/372
f 366/447/366 365/444/365 380/443/380
f 358/445/358 373/446/373 374/449/374
f 366/447/366 381/448/381 382/451/382
f 360/453/360 359/450/359 374/449/374
f 367/452/367 382/451/382 383/429/383
f 361/430/361 360/453/360 375/454/375
f 373/446/373 372/441/372 387/456/387
f 381/448/381 380/443/380 395/458/395
f 373/446/373 388/457/388 389/460/389
f 381/448/381 396/459/396 397/461/397
f 375/454/375 374/449/374 389/460/389
f 382/451/382 397/461/397 398/463/398
f 376/455/376 375/454/375 390/462/390
f 376/455/376 391/464/391 392/468/392
f 369/426/369 384/466/384 385/469/385
f 377/431/377 392/468/392 393/470/393
f 371/438/371 370/433/370 385/469/385
f 379/440/379 378/435/378 393/470/393
f 371/438/371 386/471/386 387/456/387
f 379/440/379 394/472/394 395/458/395
f 391/464/391 406/487/406 407/473/407
f 385/469/385 384/466/384 399/474/399
f 392/468/392 407/473/407 408/476/408
f 385/469/385 400/475/400 401/477/401
f 394/472/394 393/470/393 408/476/408
f 386/471/386 401/477/401 402/479/402
f 394/472/394 409/478/409 410/480/410
f 388/457/388 387/456/387 402/479/402
f 396/459/396 395/458/395 410/480/410
f 388/457/388 403/481/403 404/483/404
f 397/461/397 396/459/396 411/482/411
f 390/462/390 389/460/389 404/483/404
f 397/461/397 412/484/412 413/486/413
f 391/464/391 390/462/390 405/485/405
f 411/482/411 410/480/410 425/490/425
f 403/481/403 418/506/418 419/492/419
f 411/482/411 426/491/426 427/493/427
f 405/485/405 404/483/404 419/492/419
f 412/484/412 427/493/427 428/495/428
f 406/487/406 405/485/405 420/494/420
f 406/487/406 421/496/421 422/500/422
f 399/474/399 414/498/414 415/501/415
f 407/473/407 422/500/422 423/502/423
f 401/477/401 400/475/400 415/501/415
f 409/478/409 408/476/408 423/502/423
f 401/477/401 416/503/416 417/505/417
f 409/478/409 424/504/424 425/490/425
f 403/481/403 402/479/402 417/505/417
f 414/498/414 429/521/429 430/507/430
f 422/500/422 437/523/437 438/508/438
f 416/503/416 415/501/415 430/507/430
f 424/504/424 423/502/423 438/508/438
f 416/503/416 431/509/431 432/511/432
f 424/504/424 439/510/439 440/512/440
f 418/506/418 417/505/417 432/511/432
f 426/491/426 425/490/425 440/512/440
f 418/506/418 433/513/433 434/515/434
f 426/491/426 441/514/441 442/516/442
f 420/494/420 419/492/419 434/515/434
f 427/493/427 442/516/442 443/518/443
f 421/496/421 420/494/420 435/517/435
f 421/496/421 436/519/436 437/523/437
f 433/513/433 448/539/448 449/524/449
f 441/514/441 456/540/456 457/525/457
f 435/517/435 434/515/434 449/524/449
f 442/516/442 457/525/457 458/527/458
f 436/519/436 435/517/435 450/526/450
f 436/519/436 451/528/451 452/532/452
f 430/507/430 429/521/429 444/530/444
f 437/523/437 452/532/452 453/534/453
f 430/507/430 445/533/445 446/535/446
f 439/510/439 438/508/438 453/534/453
f 431/509/431 446/535/446 447/537/447
f 439/510/439 454/536/454 455/538/455
f 433/513/433 432/511/432 447/537/447
f 441/514/441 440/512/440 455/538/455
f 452/532/452 467/557/467 468/541/468
f 446/535/446 445/533/445 460/542/460
f 454/536/454 453/534/453 468/541/468
f 446/535/446 461/543/461 462/545/462
f 454/536/454 469/544/469 470/546/470
f 448/539/448 447/537/447 462/545/462
f 456/540/456 455/538/455 470/546/470
f 448/539/448 463/547/463 464/549/464
f 456/540/456 471/548/471 472/550/472
f 450/526/450 449/524/449 464/549/464
f 458/527/458 457/525/457 472/550/472
f 451/528/451 450/526/450 465/551/465
f 451/528/451 466/553/466 467/557/467
f 444/530/444 459/555/459 460/542/460
f 471/548/471 480/1/480 481/3/481
f 465/551/465 464/549/464 477/32/477
f 472/550/472 481/3/481 482/8/482
f 466/553/466 465/551/465 3/4/3
f 466/553/466 4/10/4 5/16/5
f 460/542/460 459/555/459 474/11/474
f 467/557/467 5/16/5 478/20/478
f 461/543/461 460/542/460 475/17/475
f 468/541/468 478/20/478 6/24/6
f 462/545/462 461/543/461 1/21/1
f 469/544/469 6/24/6 479/28/479
f 463/547/463 462/545/462 476/25/476
f 471/548/471 470/546/470 479/28/479
f 464/549/464 463/547/463 2/29/2
o 円柱
v -0.282824 -0.002876 1.071781
v -0.282824 -0.002876 0.485496
v -0.277192 -0.060065 1.071781
v -0.277192 -0.060065 0.485496
v -0.260510 -0.115057 1.071781
v -0.260510 -0.115057 0.485496
v -0.233421 -0.165737 1.071781
v -0.233421 -0.165737 0.485496
v -0.196965 -0.210159 1.071781
v -0.196965 -0.210159 0.485496
v -0.152543 -0.246615 1.071781
v -0.152543 -0.246615 0.485496
v -0.101862 -0.273704 1.071781
v -0.101862 -0.273704 0.485496
v -0.046871 -0.290386 1.071781
v -0.046871 -0.290386 0.485496
v 0.010318 -0.296019 1.071781
v 0.010318 -0.296019 0.485496
v 0.067508 -0.290386 1.071781
v 0.067508 -0.290386 0.485496
v 0.122499 -0.273704 1.071781
v 0.122499 -0.273704 0.485496
v 0.173180 -0.246615 1.071781
v 0.173180 -0.246615 0.485496
v 0.217602 -0.210159 1.071781
v 0.217602 -0.210159 0.485496
v 0.254058 -0.165737 1.071781
v 0.254058 -0.165737 0.485496
v 0.281147 -0.115057 1.071781
v 0.281147 -0.115057 0.485496
v 0.297828 -0.060065 1.071781
v 0.297828 -0.060065 0.485496
v 0.303461 -0.002876 1.071781
v 0.303461 -0.002876 0.485496
v 0.297828 0.054313 1.071781
v 0.297828 0.054313 0.485496
v 0.281147 0.109305 1.071781
v 0.281147 0.109305 0.485496
v 0.254058 0.159985 1.071781
v 0.254058 0.159985 0.485496
v 0.217602 0.204407 1.071781
v 0.217602 0.204407 0.485496
v 0.173180 0.240863 1.071781
v 0.173180 0.240863 0.485496
v 0.122499 0.267953 1.071781
v 0.122499 0.267953 0.485496
v 0.067508 0.284634 1.071781
v 0.067508 0.284634 0.485496
v 0.010318 0.290267 1.071781
v 0.010318 0.290267 0.485496
v -0.046871 0.284634 1.071781
v -0.046871 0.284634 0.485496
v -0.101862 0.267953 1.071781
v -0.101862 0.267953 0.485496
v -0.152543 0.240863 1.071781
v -0.152543 0.240863 0.485496
v -0.196965 0.204407 1.071781
v -0.196965 0.204407 0.485496
v -0.233421 0.159985 1.071781
v -0.233421 0.159985 0.485496
v -0.260510 0.109305 1.071781
v -0.260510 0.109305 0.485496
v -0.277192 0.054313 1.071781
v -0.277192 0.054313 0.485496
vn -0.7279 -0.0000 0.6857
vn -0.7279 -0.0000 -0.6857
vn -0.7139 -0.1420 0.6857
vn -0.7139 -0.1420 -0.6857
vn -0.6725 -0.2785 0.6857
vn -0.6725 -0.2786 -0.6857
vn -0.6052 -0.4044 0.6857
vn -0.6052 -0.4044 -0.6857
vn -0.5147 -0.5147 0.6857
vn -0.5147 -0.5147 -0.6857
vn -0.4044 -0.6052 0.6857
vn -0.4044 -0.6052 -0.6857
vn -0.2785 -0.6725 0.6857
vn -0.2786 -0.6725 -0.6857
vn -0.1420 -0.7139 0.6857
vn -0.1420 -0.7139 -0.6857
vn -0.0000 -0.7279 0.6857
vn -0.0000 -0.7279 -0.6857
vn 0.1420 -0.7139 0.6857
vn 0.1420 -0.7139 -0.6857
vn 0.2785 -0.6725 0.6857
vn 0.2786 -0.6725 -0.6857
vn 0.4044 -0.6052 0.6857
vn 0.4044 -0.6052 -0.6857
vn 0.5147 -0.5147 0.6857
vn 0.5147 -0.5147 -0.6857
vn 0.6052 -0.4044 0.6857
vn 0.6052 -0.4044 -0.6857
vn 0.6725 -0.2785 0.6857
vn 0.6725 -0.2786 -0.6857
vn 0.7139 -0.1420 0.6857
vn 0.7139 -0.1420 -0.6857
vn 0.7279 -0.0000 0.6857
vn 0.7279 -0.0000 -0.6857
vn 0.7139 0.1420 0.6857
vn 0.7139 0.1420 -0.6857
vn 0.6725 0.2785 0.6857
vn 0.6725 0.2786 -0.6857
vn 0.6052 0.4044 0.6857
vn 0.6052 0.4044 -0.6857
vn 0.5147 0.5147 0.6857
vn 0.5147 0.5147 -0.6857
vn 0.4044 0.6052 0.6857
vn 0.4044 0.6052 -0.6857
vn 0.2785 0.6725 0.6857
vn 0.2786 0.6725 -0.6857
vn 0.1420 0.7139 0.6857
vn 0.1420 0.7139 -0.6857
vn -0.0000 0.7279 0.6857
vn -0.0000 0.7279 -0.6857
vn -0.1420 0.7139 0.6857
vn -0.1420 0.7139 -0.6857
vn -0.2785 0.6725 0.6857
vn -0.2786 0.6725 -0.6857
vn -0.4044 0.6052 0.6857
vn -0.4044 0.6052 -0.6857
vn -0.5147 0.5147 0.6857
vn -0.5147 0.5147 -0.6857
vn -0.6052 0.4044 0.6857
vn -0.6052 0.4044 -0.6857
vn -0.6725 0.2785 0.6857
vn -0.6725 0.2786 -0.6857
vn -0.7139 0.1420 0.6857
vn -0.7139 0.1420 -0.6857
vt 0.424722 0.980416
vt 0.411970 0.776397
vt 0.424722 0.776397
vt 0.411970 0.980416
vt 0.399219 0.776397
vt 0.399219 0.980416
vt 0.386468 0.776397
vt 0.386468 0.980416
vt 0.373717 0.776397
vt 0.373717 0.980416
vt 0.360966 0.776397
vt 0.360966 0.980416
vt 0.348215 0.776397
vt 0.348215 0.980416
vt 0.335464 0.776397
vt 0.335464 0.980416
vt 0.322712 0.776397
vt 0.322712 0.980416
vt 0.309961 0.776397
vt 0.309961 0.980416
vt 0.297210 0.776397
vt 0.297210 0.980416
vt 0.284459 0.776397
vt 0.284459 0.980416
vt 0.271708 0.776397
vt 0.271708 0.980416
vt 0.258957 0.776397
vt 0.258957 0.980416
vt 0.246205 0.776397
vt 0.246205 0.980416
vt 0.233454 0.776397
vt 0.233454 0.980416
vt 0.220703 0.776397
vt 0.220703 0.980416
vt 0.207952 0.776397
vt 0.207952 0.980416
vt 0.195201 0.776397
vt 0.195201 0.980416
vt 0.182450 0.776397
vt 0.182450 0.980416
vt 0.169699 0.776397
vt 0.169699 0.980416
vt 0.156947 0.776397
vt 0.156947 0.980416
vt 0.144196 0.776397
vt 0.144196 0.980416
vt 0.131445 0.776397
vt 0.131445 0.980416
vt 0.118694 0.776397
vt 0.118694 0.980416
vt 0.105943 0.776397
vt 0.105943 0.980416
vt 0.093192 0.776397
vt 0.093192 0.980416
vt 0.080440 0.776397
vt 0.080440 0.980416
vt 0.067689 0.776397
vt 0.067689 0.980416
vt 0.054938 0.776397
vt 0.054938 0.980416
vt 0.042187 0.776397
vt 0.081218 0.583914
vt 0.209168 0.636912
vt 0.156170 0.764863
vt 0.042187 0.980416
vt 0.029436 0.776397
vt 0.029436 0.980416
vt 0.016685 0.776397
vt 0.341817 0.578341
vt 0.226665 0.655283
vt 0.303607 0.770435
vt 0.137799 0.770435
vt 0.118694 0.772317
vt 0.099589 0.770435
vt 0.081218 0.764863
vt 0.064288 0.755813
vt 0.049448 0.743634
vt 0.037269 0.728794
vt 0.028219 0.711864
vt 0.022647 0.693493
vt 0.020765 0.674388
vt 0.022647 0.655283
vt 0.028219 0.636912
vt 0.037269 0.619982
vt 0.049448 0.605142
vt 0.064288 0.592963
vt 0.099589 0.578341
vt 0.156170 0.583914
vt 0.118694 0.576459
vt 0.137799 0.578341
vt 0.173100 0.592963
vt 0.187940 0.605142
vt 0.200119 0.619982
vt 0.214741 0.655283
vt 0.209168 0.711864
vt 0.216623 0.674388
vt 0.214741 0.693493
vt 0.200119 0.728794
vt 0.187940 0.743634
vt 0.173100 0.755813
vt 0.016685 0.980416
vt 0.322712 0.772317
vt 0.341817 0.770435
vt 0.360188 0.764863
vt 0.377119 0.755813
vt 0.391958 0.743634
vt 0.404137 0.728794
vt 0.413187 0.711864
vt 0.418760 0.693493
vt 0.420641 0.674388
vt 0.418760 0.655283
vt 0.413187 0.636912
vt 0.404137 0.619982
vt 0.391958 0.605142
vt 0.377119 0.592963
vt 0.360188 0.583914
vt 0.322712 0.576459
vt 0.303607 0.578341
vt 0.285237 0.583914
vt 0.268306 0.592963
vt 0.253466 0.605142
vt 0.241287 0.619982
vt 0.232238 0.636912
vt 0.224783 0.674388
vt 0.226665 0.693493
vt 0.232238 0.711864
vt 0.241287 0.728794
vt 0.253466 0.743634
vt 0.268306 0.755813
vt 0.285237 0.764863
s 1
usemtl マテリアル.001
f 484/560/484 485/561/485 483/562/483
f 486/563/486 487/564/487 485/561/485
f 488/565/488 489/566/489 487/564/487
f 490/567/490 491/568/491 489/566/489
f 492/569/492 493/570/493 491/568/491
f 494/571/494 495/572/495 493/570/493
f 496/573/496 497/574/497 495/572/495
f 498/575/498 499/576/499 497/574/497
f 500/577/500 501/578/501 499/576/499
f 502/579/502 503/580/503 501/578/501
f 504/581/504 505/582/505 503/580/503
f 506/583/506 507/584/507 505/582/505
f 508/585/508 509/586/509 507/584/507
f 510/587/510 511/588/511 509/586/509
f 512/589/512 513/590/513 511/588/511
f 514/591/514 515/592/515 513/590/513
f 516/593/516 517/594/517 515/592/515
f 518/595/518 519/596/519 517/594/517
f 520/597/520 521/598/521 519/596/519
f 522/599/522 523/600/523 521/598/521
f 524/601/524 525/602/525 523/600/523
f 526/603/526 527/604/527 525/602/525
f 528/605/528 529/606/529 527/604/527
f 530/607/530 531/608/531 529/606/529
f 532/609/532 533/610/533 531/608/531
f 534/611/534 535/612/535 533/610/533
f 536/613/536 537/614/537 535/612/535
f 538/615/538 539/616/539 537/614/537
f 540/617/540 541/618/541 539/616/539
f 542/619/542 543/620/543 541/618/541
f 520/621/520 504/622/504 488/623/488
f 544/624/544 545/625/545 543/620/543
f 546/626/546 483/627/483 545/625/545
f 513/628/513 529/629/529 545/630/545
f 484/560/484 486/563/486 485/561/485
f 486/563/486 488/565/488 487/564/487
f 488/565/488 490/567/490 489/566/489
f 490/567/490 492/569/492 491/568/491
f 492/569/492 494/571/494 493/570/493
f 494/571/494 496/573/496 495/572/495
f 496/573/496 498/575/498 497/574/497
f 498/575/498 500/577/500 499/576/499
f 500/577/500 502/579/502 501/578/501
f 502/579/502 504/581/504 503/580/503
f 504/581/504 506/583/506 505/582/505
f 506/583/506 508/585/508 507/584/507
f 508/585/508 510/587/510 509/586/509
f 510/587/510 512/589/512 511/588/511
f 512/589/512 514/591/514 513/590/513
f 514/591/514 516/593/516 515/592/515
f 516/593/516 518/595/518 517/594/517
f 518/595/518 520/597/520 519/596/519
f 520/597/520 522/599/522 521/598/521
f 522/599/522 524/601/524 523/600/523
f 524/601/524 526/603/526 525/602/525
f 526/603/526 528/605/528 527/604/527
f 528/605/528 530/607/530 529/606/529
f 530/607/530 532/609/532 531/608/531
f 532/609/532 534/611/534 533/610/533
f 534/611/534 536/613/536 535/612/535
f 536/613/536 538/615/538 537/614/537
f 538/615/538 540/617/540 539/616/539
f 540/617/540 542/619/542 541/618/541
f 542/619/542 544/624/544 543/620/543
f 488/623/488 486/631/486 484/632/484
f 484/632/484 546/633/546 488/623/488
f 546/633/546 544/634/544 488/623/488
f 544/634/544 542/635/542 540/636/540
f 540/636/540 538/637/538 536/638/536
f 536/638/536 534/639/534 532/640/532
f 532/640/532 530/641/530 536/638/536
f 530/641/530 528/642/528 536/638/536
f 528/642/528 526/643/526 524/644/524
f 524/644/524 522/645/522 520/621/520
f 520/621/520 518/646/518 512/647/512
f 518/646/518 516/648/516 512/647/512
f 516/648/516 514/649/514 512/647/512
f 512/647/512 510/650/510 508/651/508
f 508/651/508 506/652/506 504/622/504
f 504/622/504 502/653/502 496/654/496
f 502/653/502 500/655/500 496/654/496
f 500/655/500 498/656/498 496/654/496
f 496/654/496 494/657/494 492/658/492
f 492/658/492 490/659/490 488/623/488
f 544/634/544 540/636/540 488/623/488
f 540/636/540 536/638/536 488/623/488
f 528/642/528 524/644/524 536/638/536
f 524/644/524 520/621/520 536/638/536
f 512/647/512 508/651/508 520/621/520
f 508/651/508 504/622/504 520/621/520
f 496/654/496 492/658/492 504/622/504
f 492/658/492 488/623/488 504/622/504
f 488/623/488 536/638/536 520/621/520
f 544/624/544 546/626/546 545/625/545
f 546/626/546 484/660/484 483/627/483
f 545/630/545 483/661/483 485/662/485
f 485/662/485 487/663/487 489/664/489
f 489/664/489 491/665/491 493/666/493
f 493/666/493 495/667/495 497/668/497
f 497/668/497 499/669/499 501/670/501
f 501/670/501 503/671/503 505/672/505
f 505/672/505 507/673/507 509/674/509
f 509/674/509 511/675/511 513/628/513
f 513/628/513 515/676/515 517/677/517
f 517/677/517 519/678/519 521/679/521
f 521/679/521 523/680/523 525/681/525
f 525/681/525 527/682/527 529/629/529
f 529/629/529 531/683/531 533/684/533
f 533/684/533 535/685/535 537/686/537
f 537/686/537 539/687/539 541/688/541
f 541/688/541 543/689/543 545/630/545
f 545/630/545 485/662/485 497/668/497
f 485/662/485 489/664/489 497/668/497
f 489/664/489 493/666/493 497/668/497
f 497/668/497 501/670/501 513/628/513
f 501/670/501 505/672/505 513/628/513
f 505/672/505 509/674/509 513/628/513
f 513/628/513 517/677/517 529/629/529
f 517/677/517 521/679/521 529/629/529
f 521/679/521 525/681/525 529/629/529
f 529/629/529 533/684/533 545/630/545
f 533/684/533 537/686/537 545/630/545
f 537/686/537 541/688/541 545/630/545
f 545/630/545 497/668/497 513/628/513
o 円柱.001
v 0.658767 -0.202846 0.329906
v -0.638859 -0.202847 0.329906
v 0.658767 -0.263231 0.323959
v -0.638859 -0.263231 0.323959
v 0.658767 -0.321295 0.306346
v -0.638859 -0.321295 0.306345
v 0.658767 -0.374807 0.277743
v -0.638859 -0.374807 0.277743
v 0.658767 -0.421710 0.239250
v -0.638859 -0.421710 0.239250
v 0.658767 -0.460203 0.192347
v -0.638859 -0.460203 0.192346
v 0.658767 -0.488806 0.138835
v -0.638859 -0.488806 0.138835
v 0.658767 -0.506419 0.080771
v -0.638859 -0.506419 0.080771
v 0.658767 -0.512366 0.020387
v -0.638859 -0.512366 0.020386
v 0.658767 -0.506419 -0.039998
v -0.638859 -0.506419 -0.039998
v 0.658768 -0.488806 -0.098062
v -0.638859 -0.488806 -0.098062
v 0.658768 -0.460203 -0.151574
v -0.638859 -0.460203 -0.151574
v 0.658768 -0.421710 -0.198477
v -0.638859 -0.421710 -0.198477
v 0.658768 -0.374807 -0.236970
v -0.638859 -0.374807 -0.236970
v 0.658768 -0.321295 -0.265573
v -0.638859 -0.321295 -0.265573
v 0.658768 -0.263231 -0.283186
v -0.638859 -0.263231 -0.283186
v 0.658767 -0.202846 -0.289133
v -0.638859 -0.202847 -0.289133
v 0.658767 -0.142462 -0.283186
v -0.638859 -0.142462 -0.283186
v 0.658767 -0.084398 -0.265573
v -0.638859 -0.084398 -0.265573
v 0.658767 -0.030886 -0.236970
v -0.638859 -0.030887 -0.236970
v 0.658767 0.016017 -0.198477
v -0.638859 0.016017 -0.198477
v 0.658767 0.054510 -0.151574
v -0.638859 0.054510 -0.151574
v 0.658767 0.083113 -0.098062
v -0.638859 0.083112 -0.098062
v 0.658767 0.100726 -0.039998
v -0.638859 0.100726 -0.039998
v 0.658767 0.106673 0.020387
v -0.638859 0.106673 0.020386
v 0.658767 0.100726 0.080771
v -0.638859 0.100726 0.080771
v 0.658767 0.083113 0.138835
v -0.638859 0.083112 0.138835
v 0.658767 0.054510 0.192347
v -0.638859 0.054510 0.192346
v 0.658767 0.016017 0.239250
v -0.638859 0.016017 0.239250
v 0.658767 -0.030886 0.277743
v -0.638859 -0.030887 0.277743
v 0.658767 -0.084398 0.306346
v -0.638859 -0.084398 0.306345
v 0.658767 -0.142462 0.323959
v -0.638859 -0.142462 0.323959
vn -0.0000 -0.0980 0.9952
vn -0.0000 -0.2903 0.9569
vn -0.0000 -0.4714 0.8819
vn -0.0000 -0.6344 0.7730
vn -0.0000 -0.7730 0.6344
vn -0.0000 -0.8819 0.4714
vn -0.0000 -0.9569 0.2903
vn -0.0000 -0.9952 0.0980
vn -0.0000 -0.9952 -0.0980
vn -0.0000 -0.9569 -0.2903
vn -0.0000 -0.8819 -0.4714
vn -0.0000 -0.7730 -0.6344
vn -0.0000 -0.6344 -0.7730
vn -0.0000 -0.4714 -0.8819
vn -0.0000 -0.2903 -0.9569
vn -0.0000 -0.0980 -0.9952
vn -0.0000 0.0980 -0.9952
vn -0.0000 0.2903 -0.9569
vn -0.0000 0.4714 -0.8819
vn -0.0000 0.6344 -0.7730
vn -0.0000 0.7730 -0.6344
vn -0.0000 0.8819 -0.4714
vn -0.0000 0.9569 -0.2903
vn -0.0000 0.9952 -0.0980
vn -0.0000 0.9952 0.0980
vn -0.0000 0.9569 0.2903
vn -0.0000 0.8819 0.4714
vn -0.0000 0.7730 0.6344
vn -0.0000 0.6344 0.7730
vn -0.0000 0.4714 0.8819
vn -1.0000 -0.0000 -0.0000
vn -0.0000 0.2903 0.9569
vn -0.0000 0.0980 0.9952
vn 1.0000 -0.0000 -0.0000
vt 0.961542 0.460422
vt 0.947710 0.239115
vt 0.961542 0.239115
vt 0.947710 0.460422
vt 0.933878 0.239115
vt 0.933878 0.460422
vt 0.920047 0.239115
vt 0.920047 0.460422
vt 0.906215 0.239115
vt 0.906215 0.460422
vt 0.892383 0.239115
vt 0.892383 0.460422
vt 0.878551 0.239115
vt 0.878551 0.460422
vt 0.864720 0.239115
vt 0.864720 0.460422
vt 0.850888 0.239115
vt 0.850888 0.460422
vt 0.837056 0.239115
vt 0.837056 0.460422
vt 0.823225 0.239115
vt 0.823225 0.460422
vt 0.809393 0.239115
vt 0.809393 0.460422
vt 0.795561 0.239115
vt 0.795561 0.460422
vt 0.781730 0.239115
vt 0.781730 0.460422
vt 0.767898 0.239115
vt 0.767898 0.460422
vt 0.754066 0.239115
vt 0.754066 0.460422
vt 0.740234 0.239115
vt 0.740234 0.460422
vt 0.726403 0.239115
vt 0.726403 0.460422
vt 0.712571 0.239115
vt 0.712571 0.460422
vt 0.698739 0.239115
vt 0.698739 0.460422
vt 0.684908 0.239115
vt 0.684908 0.460422
vt 0.671076 0.239115
vt 0.671076 0.460422
vt 0.657244 0.239115
vt 0.657244 0.460422
vt 0.643412 0.239115
vt 0.643412 0.460422
vt 0.629581 0.239115
vt 0.629581 0.460422
vt 0.615749 0.239115
vt 0.615749 0.460422
vt 0.601917 0.239115
vt 0.601917 0.460422
vt 0.588086 0.239115
vt 0.588086 0.460422
vt 0.574254 0.239115
vt 0.574254 0.460422
vt 0.560422 0.239115
vt 0.560422 0.460422
vt 0.546590 0.239115
vt 0.588929 0.030320
vt 0.727722 0.087810
vt 0.670232 0.226603
vt 0.546590 0.460422
vt 0.532759 0.239115
vt 0.532759 0.460422
vt 0.518927 0.239115
vt 0.871612 0.024275
vt 0.746702 0.107737
vt 0.830164 0.232648
vt 0.650305 0.232648
vt 0.629581 0.234689
vt 0.608857 0.232648
vt 0.588929 0.226603
vt 0.570564 0.216786
vt 0.554466 0.203576
vt 0.541256 0.187478
vt 0.531439 0.169113
vt 0.525394 0.149185
vt 0.523353 0.128461
vt 0.525394 0.107737
vt 0.531439 0.087810
vt 0.541256 0.069445
vt 0.554466 0.053347
vt 0.570564 0.040136
vt 0.608857 0.024275
vt 0.670232 0.030320
vt 0.629581 0.022234
vt 0.650305 0.024275
vt 0.688598 0.040136
vt 0.704695 0.053347
vt 0.717906 0.069445
vt 0.733767 0.107737
vt 0.727722 0.169113
vt 0.735808 0.128461
vt 0.733767 0.149185
vt 0.717906 0.187478
vt 0.704695 0.203576
vt 0.688598 0.216786
vt 0.518927 0.460422
vt 0.850888 0.234689
vt 0.871612 0.232648
vt 0.891540 0.226603
vt 0.909905 0.216786
vt 0.926002 0.203576
vt 0.939213 0.187478
vt 0.949029 0.169113
vt 0.955074 0.149185
vt 0.957116 0.128461
vt 0.955074 0.107737
vt 0.949029 0.087810
vt 0.939213 0.069445
vt 0.926002 0.053347
vt 0.909905 0.040136
vt 0.891540 0.030320
vt 0.850888 0.022234
vt 0.830164 0.024275
vt 0.810237 0.030320
vt 0.791871 0.040136
vt 0.775774 0.053347
vt 0.762563 0.069445
vt 0.752747 0.087810
vt 0.744660 0.128461
vt 0.746702 0.149185
vt 0.752747 0.169113
vt 0.762563 0.187478
vt 0.775774 0.203576
vt 0.791871 0.216786
vt 0.810237 0.226603
s 0
usemtl マテリアル
f 548/690/547 549/691/547 547/692/547
f 550/693/548 551/694/548 549/691/548
f 552/695/549 553/696/549 551/694/549
f 554/697/550 555/698/550 553/696/550
f 556/699/551 557/700/551 555/698/551
f 558/701/552 559/702/552 557/700/552
f 560/703/553 561/704/553 559/702/553
f 562/705/554 563/706/554 561/704/554
f 564/707/555 565/708/555 563/706/555
f 566/709/556 567/710/556 565/708/556
f 568/711/557 569/712/557 567/710/557
f 570/713/558 571/714/558 569/712/558
f 572/715/559 573/716/559 571/714/559
f 574/717/560 575/718/560 573/716/560
f 576/719/561 577/720/561 575/718/561
f 578/721/562 579/722/562 577/720/562
f 580/723/563 581/724/563 579/722/563
f 582/725/564 583/726/564 581/724/564
f 584/727/565 585/728/565 583/726/565
f 586/729/566 587/730/566 585/728/566
f 588/731/567 589/732/567 587/730/567
f 590/733/568 591/734/568 589/732/568
f 592/735/569 593/736/569 591/734/569
f 594/737/570 595/738/570 593/736/570
f 596/739/571 597/740/571 595/738/571
f 598/741/572 599/742/572 597/740/572
f 600/743/573 601/744/573 599/742/573
f 602/745/574 603/746/574 601/744/574
f 604/747/575 605/748/575 603/746/575
f 606/749/576 607/750/576 605/748/576
f 584/751/577 568/752/577 552/753/577
f 608/754/578 609/755/578 607/750/578
f 610/756/579 547/757/579 609/755/579
f 577/758/580 593/759/580 609/760/580
f 548/690/547 550/693/547 549/691/547
f 550/693/548 552/695/548 551/694/548
f 552/695/549 554/697/549 553/696/549
f 554/697/550 556/699/550 555/698/550
f 556/699/551 558/701/551 557/700/551
f 558/701/552 560/703/552 559/702/552
f 560/703/553 562/705/553 561/704/553
f 562/705/554 564/707/554 563/706/554
f 564/707/555 566/709/555 565/708/555
f 566/709/556 568/711/556 567/710/556
f 568/711/557 570/713/557 569/712/557
f 570/713/558 572/715/558 571/714/558
f 572/715/559 574/717/559 573/716/559
f 574/717/560 576/719/560 575/718/560
f 576/719/561 578/721/561 577/720/561
f 578/721/562 580/723/562 579/722/562
f 580/723/563 582/725/563 581/724/563
f 582/725/564 584/727/564 583/726/564
f 584/727/565 586/729/565 585/728/565
f 586/729/566 588/731/566 587/730/566
f 588/731/567 590/733/567 589/732/567
f 590/733/568 592/735/568 591/734/568
f 592/735/569 594/737/569 593/736/569
f 594/737/570 596/739/570 595/738/570
f 596/739/571 598/741/571 597/740/571
f 598/741/572 600/743/572 599/742/572
f 600/743/573 602/745/573 601/744/573
f 602/745/574 604/747/574 603/746/574
f 604/747/575 606/749/575 605/748/575
f 606/749/576 608/754/576 607/750/576
f 552/753/577 550/761/577 548/762/577
f 548/762/577 610/763/577 552/753/577
f 610/763/577 608/764/577 552/753/577
f 608/764/577 606/765/577 604/766/577
f 604/766/577 602/767/577 600/768/577
f 600/768/577 598/769/577 596/770/577
f 596/770/577 594/771/577 600/768/577
f 594/771/577 592/772/577 600/768/577
f 592/772/577 590/773/577 588/774/577
f 588/774/577 586/775/577 584/751/577
f 584/751/577 582/776/577 576/777/577
f 582/776/577 580/778/577 576/777/577
f 580/778/577 578/779/577 576/777/577
f 576/777/577 574/780/577 572/781/577
f 572/781/577 570/782/577 568/752/577
f 568/752/577 566/783/577 560/784/577
f 566/783/577 564/785/577 560/784/577
f 564/785/577 562/786/577 560/784/577
f 560/784/577 558/787/577 556/788/577
f 556/788/577 554/789/577 552/753/577
f 608/764/577 604/766/577 552/753/577
f 604/766/577 600/768/577 552/753/577
f 592/772/577 588/774/577 600/768/577
f 588/774/577 584/751/577 600/768/577
f 576/777/577 572/781/577 584/751/577
f 572/781/577 568/752/577 584/751/577
f 560/784/577 556/788/577 568/752/577
f 556/788/577 552/753/577 568/752/577
f 552/753/577 600/768/577 584/751/577
f 608/754/578 610/756/578 609/755/578
f 610/756/579 548/790/579 547/757/579
f 609/760/580 547/791/580 549/792/580
f 549/792/580 551/793/580 553/794/580
f 553/794/580 555/795/580 557/796/580
f 557/796/580 559/797/580 561/798/580
f 561/798/580 563/799/580 565/800/580
f 565/800/580 567/801/580 569/802/580
f 569/802/580 571/803/580 573/804/580
f 573/804/580 575/805/580 577/758/580
f 577/758/580 579/806/580 581/807/580
f 581/807/580 583/808/580 585/809/580
f 585/809/580 587/810/580 589/811/580
f 589/811/580 591/812/580 593/759/580
f 593/759/580 595/813/580 597/814/580
f 597/814/580 599/815/580 601/816/580
f 601/816/580 603/817/580 605/818/580
f 605/818/580 607/819/580 609/760/580
f 609/760/580 549/792/580 561/798/580
f 549/792/580 553/794/580 561/798/580
f 553/794/580 557/796/580 561/798/580
f 561/798/580 565/800/580 577/758/580
f 565/800/580 569/802/580 577/758/580
f 569/802/580 573/804/580 577/758/580
f 577/758/580 581/807/580 593/759/580
f 581/807/580 585/809/580 593/759/580
f 585/809/580 589/811/580 593/759/580
f 593/759/580 597/814/580 609/760/580
f 597/814/580 601/816/580 609/760/580
f 601/816/580 605/818/580 609/760/580
f 609/760/580 561/798/580 577/758/580
