# Blender 4.4.1
# www.blender.org
mtllib player_head.mtl
o Cube
v 0.508936 0.503519 -0.509270
v 0.508936 -0.496481 -0.509270
v 0.508937 0.503519 0.490731
v 0.508937 -0.496481 0.490730
v -0.491064 0.503519 -0.509269
v -0.491064 -0.496481 -0.509269
v -0.491063 0.503519 0.490731
v -0.491063 -0.496481 0.490731
vn -0.0000 1.0000 -0.0000
vn -0.0000 -0.0000 1.0000
vn -1.0000 -0.0000 -0.0000
vn -0.0000 -1.0000 -0.0000
vn 1.0000 -0.0000 -0.0000
vn -0.0000 -0.0000 -1.0000
vt 0.452861 0.625500
vt 0.634190 0.625500
vt 0.452861 0.806829
vt 0.271532 0.806829
vt 0.452861 0.988158
vt 0.271532 0.988158
vt 0.271532 0.262842
vt 0.452861 0.262842
vt 0.452861 0.444171
vt 0.090203 0.625500
vt 0.271532 0.625500
vt 0.271532 0.444171
vt 0.634190 0.806829
vt 0.090203 0.806829
s 1
usemtl Material.001
f 1/1/1 5/2/1 3/3/1
f 4/4/2 7/5/2 8/6/2
f 8/7/3 7/8/3 5/9/3
f 6/10/4 2/11/4 4/4/4
f 2/11/5 3/3/5 4/4/5
f 6/12/6 5/9/6 1/1/6
f 3/3/5 2/11/5 1/1/5
f 3/3/1 5/2/1 7/13/1
f 1/1/6 2/11/6 6/12/6
f 7/5/2 4/4/2 3/3/2
f 5/9/3 6/12/3 8/7/3
f 4/4/4 8/14/4 6/10/4
o 円柱
v 0.240480 0.350048 0.508687
v 0.240480 0.350048 0.651856
v 0.417696 0.084826 0.508687
v 0.417696 0.084826 0.651855
v 0.355466 -0.228024 0.508685
v 0.355466 -0.228024 0.651855
v 0.090244 -0.405240 0.508687
v 0.090244 -0.405240 0.651855
v -0.222606 -0.343010 0.508687
v -0.222606 -0.343010 0.651856
v -0.399821 -0.077788 0.508687
v -0.399821 -0.077788 0.651856
v -0.337592 0.235062 0.508687
v -0.337592 0.235062 0.651856
v -0.072370 0.412277 0.508687
v -0.072370 0.412277 0.651856
v -0.337984 0.233090 0.508687
v -0.397878 -0.080697 0.508687
v -0.219725 -0.343583 0.508687
v 0.353794 -0.229142 0.508685
v 0.417013 0.081394 0.508687
v 0.242112 0.347606 0.508687
v 0.008937 0.003519 0.651856
v 0.009450 0.000942 0.508687
vn -0.8315 -0.5556 -0.0000
vn -0.8315 -0.5555 -0.0000
vn -0.5556 0.8315 -0.0000
vn 0.9808 -0.1951 -0.0000
vn 0.5556 -0.8315 -0.0000
vn 0.5557 -0.8314 -0.0000
vn -0.1951 -0.9808 -0.0000
vn -0.9808 0.1951 -0.0000
vn -0.9808 0.1950 -0.0000
vn 0.8315 0.5556 -0.0000
vn -0.0000 -0.0000 1.0000
vn -0.0000 -0.0000 -1.0000
vn 0.1951 0.9808 -0.0000
vn -0.8316 -0.5554 -0.0000
vn -0.9807 0.1953 -0.0000
vn 0.8314 0.5556 -0.0000
vn 0.9808 -0.1952 -0.0000
vn 0.5559 -0.8313 -0.0000
vt 0.820990 0.240668
vt 0.797524 0.240668
vt 0.797781 0.146805
vt 0.820990 0.146805
vt 0.774058 0.240668
vt 0.750592 0.240668
vt 0.750592 0.146805
vt 0.774058 0.146805
vt 0.891388 0.240668
vt 0.867922 0.240668
vt 0.867922 0.146805
vt 0.891130 0.146805
vt 0.844456 0.240668
vt 0.844456 0.146805
vt 0.867774 0.146805
vt 0.821206 0.146805
vt 0.774206 0.146805
vt 0.797524 0.146805
vt 0.914854 0.240668
vt 0.891388 0.146805
vt 0.914638 0.146805
vt 0.419650 0.215132
vt 0.340047 0.230966
vt 0.360735 0.126961
vt 0.966202 0.231531
vt 0.966397 0.231239
vt 0.938496 0.189665
vt 0.928684 0.238994
vt 0.914854 0.146805
vt 0.272564 0.185875
vt 0.256730 0.106273
vt 0.301821 0.038789
vt 0.381423 0.022955
vt 0.448907 0.068047
vt 0.464741 0.147649
vt 0.896830 0.217505
vt 0.896877 0.217742
vt 0.889647 0.179875
vt 0.889414 0.180224
vt 0.911012 0.148349
vt 0.910667 0.148417
vt 0.948185 0.140954
vt 0.979791 0.162073
vt 0.987372 0.199313
vt 0.979991 0.162207
vt 0.987454 0.199725
s 1
usemtl マテリアル
f 18/15/7 20/16/7 26/17/8 17/18/7
f 22/19/9 24/20/9 23/21/9 21/22/9
f 12/23/10 14/24/10 13/25/10 29/26/10
f 14/24/11 16/27/11 15/28/11 28/29/12
f 16/27/13 18/15/13 27/30/13 15/28/13
f 20/16/14 22/19/14 25/31/15 19/32/14
f 10/33/16 12/23/16 11/34/16 30/35/16
f 10/36/17 24/37/17 31/38/17
f 9/39/18 30/40/18 32/41/18 23/42/18
f 23/21/19 24/20/19 10/33/19 9/43/19
f 26/17/8 20/16/7 19/32/20
f 25/31/15 22/19/14 21/22/21
f 30/35/16 9/43/22 10/33/16
f 29/26/10 11/34/23 12/23/10
f 31/38/17 24/37/17 22/44/17
f 22/44/17 20/45/17 31/38/17
f 20/45/17 18/46/17 31/38/17
f 18/46/17 16/47/17 31/38/17
f 16/47/17 14/48/17 31/38/17
f 14/48/17 12/49/17 31/38/17
f 12/49/17 10/36/17 31/38/17
f 28/29/12 13/25/24 14/24/11
f 23/42/18 32/41/18 25/50/18 21/51/18
f 25/50/18 32/41/18 26/52/18 19/53/18
f 26/52/18 32/41/18 27/54/18 17/55/18
f 27/54/18 32/41/18 15/56/18
f 15/56/18 32/41/18 28/57/18
f 28/57/18 32/41/18 29/58/18 13/59/18
f 29/58/18 32/41/18 30/40/18 11/60/18
f 27/30/13 18/15/13 17/18/13
o 円柱.001
v 0.065813 0.289451 0.652748
v 0.065813 0.289451 0.752897
v 0.251339 0.165486 0.652748
v 0.251339 0.165486 0.752897
v 0.294869 -0.053357 0.652748
v 0.294869 -0.053357 0.752897
v 0.170905 -0.238883 0.652748
v 0.170905 -0.238883 0.752897
v -0.047938 -0.282413 0.652748
v -0.047938 -0.282413 0.752897
v -0.233465 -0.158449 0.652748
v -0.233465 -0.158449 0.752897
v -0.276995 0.060394 0.652748
v -0.276995 0.060394 0.752897
v -0.153030 0.245921 0.652748
v -0.153030 0.245921 0.752897
v 0.057633 0.287824 0.652748
v -0.154070 0.244365 0.652748
v -0.233794 -0.156794 0.652748
v -0.054873 -0.277780 0.652748
v 0.169070 -0.239248 0.652748
v 0.249936 0.166424 0.652748
v 0.008937 0.003519 0.752897
vn 0.5556 0.8315 -0.0000
vn 0.5557 0.8314 -0.0000
vn 0.9808 0.1951 -0.0000
vn 0.8315 -0.5556 -0.0000
vn 0.1951 -0.9808 -0.0000
vn -0.5556 -0.8315 -0.0000
vn -0.5555 -0.8315 -0.0000
vn -0.9808 -0.1951 -0.0000
vn -0.9808 -0.1950 -0.0000
vn -0.8315 0.5556 -0.0000
vn -0.8314 0.5556 -0.0000
vn -0.0000 -0.0000 1.0000
vn -0.1951 0.9808 -0.0000
vn -0.8314 0.5557 -0.0000
vn 0.5558 0.8313 -0.0000
vn -0.9807 -0.1953 -0.0000
vt 0.721456 0.118315
vt 0.694019 0.118315
vt 0.694226 0.008568
vt 0.721456 0.008568
vt 0.666582 0.118315
vt 0.666582 0.008568
vt 0.694019 0.008568
vt 0.639145 0.118315
vt 0.639145 0.008568
vt 0.611709 0.118315
vt 0.611709 0.008568
vt 0.638915 0.008568
vt 0.584272 0.118315
vt 0.584272 0.008568
vt 0.610683 0.008568
vt 0.556835 0.118315
vt 0.556835 0.008568
vt 0.584064 0.008568
vt 0.529398 0.118315
vt 0.529629 0.008568
vt 0.148281 0.231684
vt 0.066246 0.215366
vt 0.126961 0.124500
vt 0.714277 0.008568
vt 0.529398 0.008568
vt 0.019777 0.145820
vt 0.036094 0.063785
vt 0.105641 0.017316
vt 0.187676 0.033634
vt 0.234145 0.103180
vt 0.217827 0.185215
s 1
usemtl マテリアル.001
f 34/61/25 36/62/25 54/63/26 33/64/25
f 36/62/27 38/65/27 37/66/27 35/67/27
f 38/65/28 40/68/28 39/69/28 37/66/28
f 40/68/29 42/70/29 41/71/29 53/72/29
f 42/70/30 44/73/30 43/74/30 52/75/31
f 44/73/32 46/76/32 45/77/32 51/78/33
f 46/76/34 48/79/34 50/80/35 45/77/34
f 34/81/36 48/82/36 55/83/36
f 48/79/37 34/61/37 49/84/37 47/85/37
f 50/80/35 48/79/34 47/85/38
f 55/83/36 48/82/36 46/86/36
f 46/86/36 44/87/36 55/83/36
f 44/87/36 42/88/36 55/83/36
f 42/88/36 40/89/36 55/83/36
f 40/89/36 38/90/36 55/83/36
f 38/90/36 36/91/36 55/83/36
f 36/91/36 34/81/36 55/83/36
f 53/72/29 39/69/29 40/68/29
f 49/84/37 34/61/37 33/64/37
f 52/75/31 41/71/31 42/70/30
f 54/63/26 36/62/25 35/67/39
f 51/78/33 43/74/40 44/73/32
