# Blender 4.4.1
# www.blender.org
mtllib player_hand.mtl
o 立方体
v -0.224662 0.128033 0.164990
v 0.226144 0.128033 0.164990
v 0.000741 0.217769 0.009563
v 0.000741 0.375334 -0.263347
v 0.000741 1.569204 0.997050
vn 0.9031 0.3117 -0.2953
vn -0.0000 -0.8660 -0.5000
vn -0.9031 0.3117 -0.2953
vn -0.6207 -0.4626 0.6331
vn 0.6207 -0.4626 0.6331
vt 0.750000 0.500000
vt 0.375000 0.875000
vt 0.375000 0.500000
vt 0.375000 0.375000
vt 0.625000 0.375000
vt 0.375000 0.250000
vt 0.250000 0.500000
vt 0.250000 0.750000
vt 0.125000 0.500000
s 1
usemtl マテリアル
f 4/1/1 5/2/1 2/3/1
f 3/4/2 4/5/2 2/3/2
f 1/6/3 5/2/3 4/1/3
f 3/7/4 2/3/4 5/8/4
f 1/9/5 3/7/5 5/8/5
f 1/6/2 4/5/2 3/4/2
o 立方体.001
v -0.009022 -0.261902 0.132907
v -0.234425 0.128507 0.132907
v -0.199437 -0.111565 -0.022520
v -0.335892 -0.190348 -0.295430
v -1.369814 -0.787283 0.964967
vn -0.7215 0.6263 -0.2953
vn 0.7500 0.4330 -0.5000
vn 0.1816 -0.9380 -0.2953
vn 0.7109 -0.3062 0.6331
vn 0.0903 0.7688 0.6331
vt 0.750000 0.500000
vt 0.375000 0.875000
vt 0.375000 0.500000
vt 0.375000 0.375000
vt 0.625000 0.375000
vt 0.375000 0.250000
vt 0.250000 0.500000
vt 0.250000 0.750000
vt 0.125000 0.500000
s 1
usemtl マテリアル.003
f 9/10/6 10/11/6 7/12/6
f 8/13/7 9/14/7 7/12/7
f 6/15/8 10/11/8 9/10/8
f 8/16/9 7/12/9 10/17/9
f 6/18/10 8/16/10 10/17/10
f 6/15/7 9/14/7 8/13/7
o 立方体.002
v 0.234796 0.131093 0.197124
v 0.009393 -0.259317 0.197124
v 0.199808 -0.108980 0.041697
v 0.336264 -0.187762 -0.231213
v 1.370185 -0.784697 1.029184
vn -0.1816 -0.9380 -0.2953
vn -0.7500 0.4330 -0.5000
vn 0.7215 0.6263 -0.2953
vn -0.0903 0.7688 0.6331
vn -0.7109 -0.3062 0.6331
vt 0.750000 0.500000
vt 0.375000 0.875000
vt 0.375000 0.500000
vt 0.375000 0.375000
vt 0.625000 0.375000
vt 0.375000 0.250000
vt 0.250000 0.500000
vt 0.250000 0.750000
vt 0.125000 0.500000
s 1
usemtl マテリアル.004
f 14/19/11 15/20/11 12/21/11
f 13/22/12 14/23/12 12/21/12
f 11/24/13 15/20/13 14/19/13
f 13/25/14 12/21/14 15/26/14
f 11/27/15 13/25/15 15/26/15
f 11/24/12 14/23/12 13/22/12
